<svg width="70" height="70" viewBox="0 0 70 70" fill="none" xmlns="http://www.w3.org/2000/svg">
<path d="M25.9032 24.8386C26.5332 23.5798 29.2711 23.0231 32.5476 22.5806H22.5161C21.3184 22.5806 20.1697 23.0564 19.3227 23.9033C18.4758 24.7502 18 25.8989 18 27.0967V65.4838C18 66.6815 18.4758 67.8302 19.3227 68.6772C20.1697 69.5241 21.3184 69.9999 22.5161 69.9999H32.8818C19.9656 58.6441 17.414 38.9865 25.9032 24.8386Z" fill="#64E1DC"/>
<path d="M44.2364 22.5806H32.5476C29.2734 23.0231 26.5332 23.5798 25.9032 24.8386C17.414 38.9865 19.9656 58.6441 32.8818 69.9999H46.543C51.1122 54.1935 48.0909 38.387 44.2364 22.5806Z" fill="#B4F5F0"/>
<path d="M47.3548 22.5806H44.2365C48.091 38.387 51.1123 54.1935 46.5397 69.9999H47.3548C48.5526 69.9999 49.7013 69.5241 50.5482 68.6772C51.3952 67.8302 51.871 66.6815 51.871 65.4838V27.0967C51.871 25.8989 51.3952 24.7502 50.5482 23.9033C49.7013 23.0564 48.5526 22.5806 47.3548 22.5806Z" fill="#CCFFFA"/>
<path d="M46.2992 31.6128H22.8006C21.2239 36.4353 20.6586 41.5311 21.1402 46.582C21.6218 51.6328 23.1398 56.53 25.5995 60.9676H48.3969C49.5835 51.1823 48.3416 41.3981 46.2992 31.6128Z" fill="#00C8C8"/>
<path d="M46.2991 31.6128C48.3416 41.3981 49.5835 51.1823 48.3969 60.9676H51.8709V31.6128H46.2991Z" fill="#64E1DC"/>
<path d="M22.8006 31.6128H18V60.9676H25.5995C23.1399 56.53 21.6218 51.6328 21.1403 46.582C20.6587 41.5311 21.2239 36.4353 22.8006 31.6128V31.6128Z" fill="#1CADB5"/>
<path d="M38.3226 42.9033V38.3872H31.5484V42.9033H27.0323V49.6775H31.5484V54.1937H38.3226V49.6775H42.8387V42.9033H38.3226Z" fill="#FEBD73"/>
<path d="M34.9355 15.8064H31.5484C30.9495 15.8064 30.3752 16.0443 29.9517 16.4678C29.5282 16.8912 29.2903 17.4656 29.2903 18.0645V22.5806H33.8065C32.6774 20.3225 33.8065 18.0645 34.9355 15.8064Z" fill="#4889A0"/>
<path d="M37.583 15.8064H34.9354C33.8064 18.0645 32.6774 20.3225 33.8064 22.5806H38.3225C39.3579 19.9928 38.4941 17.8804 37.583 15.8064Z" fill="#5D99AF"/>
<path d="M38.3226 15.8064H37.5831C38.4942 17.8804 39.3579 19.9928 38.3226 22.5806H40.5806V18.0645C40.5806 17.4656 40.3427 16.8912 39.9193 16.4678C39.4958 16.0443 38.9215 15.8064 38.3226 15.8064Z" fill="#A4C9D6"/>
<path d="M33.8065 11.2903H32.6774C32.378 11.2903 32.0908 11.4092 31.8791 11.621C31.6674 11.8327 31.5484 12.1199 31.5484 12.4193V15.8064H34.9355C32.6774 14.6774 33.8065 12.4193 33.8065 11.2903Z" fill="#5D99AF"/>
<path d="M33.8064 11.2903C33.8064 12.4193 32.6774 14.6774 34.9355 15.8064H37.583C36.8439 14.4039 36.3892 12.8691 36.2451 11.2903H33.8064Z" fill="#A4C9D6"/>
<path d="M38.3225 12.4193C38.3225 12.1199 38.2036 11.8327 37.9919 11.621C37.7801 11.4092 37.4929 11.2903 37.1935 11.2903H36.2451C36.3892 12.8691 36.8439 14.4039 37.583 15.8064H38.3225V12.4193Z" fill="#B4D3E0"/>
<path d="M32.6774 5.64526V11.2904H33.8065C33.8988 9.18758 34.7369 7.18634 36.1707 5.64526H32.6774Z" fill="#A4C9D6"/>
<path d="M37.1936 7.90333V5.64526H36.1707C34.7369 7.18634 33.8988 9.18758 33.8065 11.2904H36.2452C36.2232 10.0929 36.5529 8.9153 37.1936 7.90333V7.90333Z" fill="#B4D3E0"/>
<path d="M37.1936 7.90332C36.553 8.91529 36.2233 10.0929 36.2452 11.2904H37.1936V7.90332Z" fill="#CCDEE6"/>
<path d="M47.3547 11.2903L49.291 14.5803C49.5501 15.0208 49.6573 15.5341 49.5961 16.0415C49.5349 16.5488 49.3087 17.022 48.9523 17.3882C48.745 17.6012 48.4972 17.7706 48.2234 17.8862C47.9496 18.0018 47.6553 18.0614 47.3581 18.0614C47.0609 18.0614 46.7667 18.0018 46.4929 17.8862C46.219 17.7706 45.9712 17.6012 45.7639 17.3882C45.4076 17.022 45.1814 16.5488 45.1202 16.0415C45.059 15.5341 45.1662 15.0208 45.4252 14.5803L47.3547 11.2903Z" fill="#64E1DC"/>
<path d="M26.0647 0H25.9032C25.6038 0 25.3166 0.118951 25.1049 0.330686C24.8931 0.54242 24.7742 0.829594 24.7742 1.12903V4.51613C24.7742 4.81557 24.8931 5.10274 25.1049 5.31448C25.3166 5.52621 25.6038 5.64516 25.9032 5.64516H32.578C29.2971 5.11903 26.7918 3.68177 26.0647 0Z" fill="#4889A0"/>
<path d="M43.1695 5.80985L45.7211 7.08566C45.8932 7.17165 46.0844 7.21225 46.2766 7.20359C46.4688 7.19494 46.6556 7.13732 46.8192 7.0362C46.9829 6.93509 47.118 6.79383 47.2117 6.62584C47.3055 6.45784 47.3547 6.26868 47.3548 6.07631V6.00405C45.9648 5.85658 44.5672 5.79173 43.1695 5.80985V5.80985Z" fill="#4889A0"/>
<path d="M47.3548 3.38709C47.3548 3.08765 47.2358 2.80048 47.0241 2.58874C46.8123 2.37701 46.5252 2.25806 46.2257 2.25806H41.1835C43.5691 2.79096 45.6996 3.78564 46.7157 5.95564C46.9257 5.97483 47.1448 5.98048 47.3514 6.00419L47.3548 3.38709Z" fill="#A4C9D6"/>
<path d="M41.1836 2.25806H29.7578C29.4584 2.258 29.1713 2.13901 28.9596 1.92726L27.3631 0.330806C27.1515 0.119057 26.8643 6.39455e-05 26.5649 0H26.0648C26.7919 3.68177 29.2972 5.11903 32.5781 5.64516H42.5723C42.7476 5.64506 42.9205 5.68605 43.077 5.76484L43.1696 5.81C44.3833 5.81 45.5699 5.85177 46.7193 5.95565C45.7043 3.78565 43.5693 2.79097 41.1836 2.25806Z" fill="#5D99AF"/>
</svg>
