<svg width="332" height="325" viewBox="0 0 332 325" fill="none" xmlns="http://www.w3.org/2000/svg">
<path d="M96.296 173.557C89.8949 173.69 83.61 175.292 77.9271 178.241C73.8798 180.332 70.5178 183.541 68.2406 187.486C65.9633 191.431 64.8666 195.947 65.0807 200.498C65.0807 200.601 65.091 200.709 65.0971 200.815C65.3913 206.206 64.1226 211.568 61.4434 216.255C58.2421 221.853 55.0954 230.339 57.3505 239.975C57.3505 239.975 60.2756 260.819 83.3135 260.453C83.3135 260.453 89.5295 277.639 111.471 277.639C133.412 277.639 136.702 257.528 136.702 257.528C136.702 257.528 168.516 256.43 170.714 227.908C170.714 227.908 172.3 214.961 161.995 205.464C156.135 200.236 152.159 193.225 150.679 185.514C150.501 184.501 150.351 183.474 150.24 182.445C149.959 179.687 148.976 177.046 147.384 174.776C145.792 172.506 143.644 170.682 141.146 169.478C133.484 165.827 121.841 162.959 109.626 169.823C105.56 172.152 100.98 173.435 96.296 173.557V173.557Z" fill="url(#paint0_linear)"/>
<path d="M45.0502 99.3857C52.8526 99.3857 59.1778 93.0606 59.1778 85.2581C59.1778 77.4557 52.8526 71.1306 45.0502 71.1306C37.2477 71.1306 30.9226 77.4557 30.9226 85.2581C30.9226 93.0606 37.2477 99.3857 45.0502 99.3857Z" fill="url(#paint1_linear)"/>
<path d="M18.0494 181.957C26.0254 181.957 32.4913 175.491 32.4913 167.515C32.4913 159.539 26.0254 153.073 18.0494 153.073C10.0733 153.073 3.60742 159.539 3.60742 167.515C3.60742 175.491 10.0733 181.957 18.0494 181.957Z" fill="url(#paint2_linear)"/>
<path d="M160.9 320.726C169.396 320.726 176.284 313.839 176.284 305.342C176.284 296.846 169.396 289.958 160.9 289.958C152.404 289.958 145.516 296.846 145.516 305.342C145.516 313.839 152.404 320.726 160.9 320.726Z" fill="url(#paint3_linear)"/>
<path d="M270.471 252.042C279.355 252.042 286.556 244.841 286.556 235.957C286.556 227.074 279.355 219.873 270.471 219.873C261.588 219.873 254.386 227.074 254.386 235.957C254.386 244.841 261.588 252.042 270.471 252.042Z" fill="url(#paint4_linear)"/>
<path d="M100.606 221.51C107.015 221.51 112.21 216.315 112.21 209.906C112.21 203.497 107.015 198.302 100.606 198.302C94.197 198.302 89.0015 203.497 89.0015 209.906C89.0015 216.315 94.197 221.51 100.606 221.51Z" fill="white"/>
<path d="M112.212 253.885C117.162 253.885 121.176 249.872 121.176 244.921C121.176 239.971 117.162 235.958 112.212 235.958C107.261 235.958 103.248 239.971 103.248 244.921C103.248 249.872 107.261 253.885 112.212 253.885Z" fill="white"/>
<path d="M113.692 103.896C123.985 103.896 132.33 95.5515 132.33 85.2581C132.33 74.9647 123.985 66.6203 113.692 66.6203C103.398 66.6203 95.054 74.9647 95.054 85.2581C95.054 95.5515 103.398 103.896 113.692 103.896Z" fill="url(#paint5_linear)"/>
<path d="M56.5856 145.477C61.263 145.477 65.0547 141.685 65.0547 137.008C65.0547 132.33 61.263 128.539 56.5856 128.539C51.9082 128.539 48.1165 132.33 48.1165 137.008C48.1165 141.685 51.9082 145.477 56.5856 145.477Z" fill="#464965"/>
<path d="M22.0371 265.197C26.9445 265.197 30.9227 261.219 30.9227 256.312C30.9227 251.404 26.9445 247.426 22.0371 247.426C17.1298 247.426 13.1516 251.404 13.1516 256.312C13.1516 261.219 17.1298 265.197 22.0371 265.197Z" fill="#464965"/>
<path d="M300.767 303.996C303.965 303.996 306.557 301.447 306.557 298.304C306.557 295.16 303.965 292.611 300.767 292.611C297.569 292.611 294.977 295.16 294.977 298.304C294.977 301.447 297.569 303.996 300.767 303.996Z" fill="url(#paint6_linear)"/>
<path d="M311.231 195.8C315.709 195.8 319.339 192.231 319.339 187.829C319.339 183.426 315.709 179.857 311.231 179.857C306.753 179.857 303.122 183.426 303.122 187.829C303.122 192.231 306.753 195.8 311.231 195.8Z" fill="url(#paint7_linear)"/>
<path d="M41.3077 291.032C39.618 292.404 38.2308 294.11 37.2334 296.044C35.8127 298.923 35.4129 302.198 36.0996 305.334C37.2458 310.936 41.0273 319.866 53.5058 317.66C62.2986 316.103 64.7403 309.408 65.0371 303.246C65.1738 300.169 64.3382 297.128 62.649 294.553C60.9597 291.978 58.5024 290.001 55.626 288.902V288.902C53.263 287.965 50.6947 287.669 48.1806 288.043C45.6665 288.417 43.2957 289.448 41.3077 291.032V291.032Z" fill="#464965"/>
<path d="M143.467 220.467C143.26 221.251 142.889 221.982 142.379 222.612C141.87 223.243 141.233 223.759 140.51 224.126C139.788 224.494 138.996 224.704 138.186 224.745C137.376 224.785 136.567 224.654 135.812 224.36C133.132 223.133 131.689 219.215 132.606 215.611C133.523 212.006 136.438 210.079 139.123 211.308C141.808 212.536 144.382 216.863 143.467 220.467Z" fill="white"/>
<path d="M105.107 171.89C106.666 171.326 108.176 170.634 109.622 169.823C114.405 167.079 119.826 165.644 125.341 165.661C123.108 161.248 121.697 156.467 121.175 151.55C119.68 137.666 121.175 115.177 121.175 115.177C121.175 115.177 121.175 104.834 127.636 97.6191H127.611C125.172 100.386 121.961 102.362 118.392 103.293C114.822 104.223 111.056 104.067 107.576 102.844C109.264 105.328 111.376 110.272 111.376 119.482V157.406C111.376 157.406 111.891 166.018 105.107 171.89Z" fill="#464965"/>
<path d="M220.892 169.755C218.177 164.704 210.963 160.957 205.262 161.572C204.298 161.676 203.344 161.864 202.413 162.134C199.107 163.148 196.244 165.256 194.294 168.112C194.294 168.112 186.616 178.618 176.412 184.37C175.679 184.767 175.049 185.33 174.572 186.014C174.095 186.698 173.784 187.484 173.664 188.309C173.544 189.134 173.618 189.976 173.88 190.767C174.143 191.558 174.586 192.278 175.175 192.868C175.225 192.914 175.278 192.961 175.326 193.007C176.173 193.763 177.238 194.23 178.368 194.341C179.498 194.452 180.634 194.201 181.613 193.625C185.231 191.52 192.265 188.608 199.498 192.152C199.833 192.341 200.168 192.528 200.5 192.685L200.554 192.714V192.708C207.068 195.767 212.95 193.001 217.323 189.253C220.052 186.897 221.894 183.679 222.543 180.133C223.192 176.586 222.61 172.925 220.892 169.755Z" fill="url(#paint8_linear)"/>
<path d="M83.3131 260.453C78.4557 260.659 73.6312 259.567 69.336 257.29C68.8167 261.373 67.6774 265.354 65.9574 269.094C62.8417 275.993 58.909 282.492 54.2437 288.453C54.7095 288.582 55.1713 288.727 55.6279 288.902C58.2034 289.893 60.449 291.588 62.1088 293.792C65.2297 285.708 73.1536 270.32 88.7211 268.584C86.422 266.239 84.5871 263.48 83.3131 260.453V260.453Z" fill="#464965"/>
<path d="M65.0805 200.498C64.7854 194.241 66.9705 188.12 71.1616 183.464C66.8152 183.926 60.7826 183.361 52.6515 180.243C42.0355 176.18 35.9307 171.428 32.48 167.723C32.4545 169.643 32.0448 171.539 31.2749 173.298C30.5051 175.057 29.3907 176.644 27.9976 177.965C31.8317 178.701 38.7847 180.969 48.0248 187.899C56.8464 194.515 61.7143 203.509 64.1787 209.543C64.9423 206.699 65.2519 203.752 65.096 200.811C65.0909 200.709 65.0857 200.604 65.0805 200.498Z" fill="#464965"/>
<path d="M320.265 31.3039C317.885 31.5719 315.663 32.634 313.96 34.319C312.257 36.0039 311.171 38.2135 310.877 40.5914C310.694 42.1304 310.853 43.6908 311.342 45.1614C312.038 47.1895 312.222 49.3578 311.88 51.4744C310.455 59.9167 299.363 62.6099 295.125 62.6099C292.135 62.6025 289.159 62.197 286.276 61.404C285.757 61.2489 285.274 60.9931 284.854 60.6513C284.434 60.3095 284.086 59.8883 283.828 59.4118C283.571 58.9353 283.411 58.4129 283.355 57.8743C283.3 57.3357 283.352 56.7915 283.507 56.2727C283.662 55.754 283.918 55.2709 284.259 54.851C284.601 54.4311 285.022 54.0827 285.499 53.8255C285.975 53.5684 286.498 53.4077 287.036 53.3525C287.575 53.2973 288.119 53.3487 288.638 53.5038C291.262 54.2747 298.885 55.5353 302.671 52.1732L302.692 52.1536C302.981 51.9063 303.213 51.6009 303.375 51.2572C303.537 50.9136 303.624 50.5397 303.631 50.16C303.637 49.7802 303.564 49.4034 303.415 49.0542C303.265 48.705 303.044 48.3914 302.764 48.1339C301.557 46.9868 300.278 45.8561 298.934 44.7553C296.581 42.7962 294.876 40.1691 294.047 37.221C293.074 34.1539 292.379 31.0056 291.969 27.814C291.936 27.2259 291.73 26.6608 291.376 26.1896C291.023 25.7184 290.538 25.3621 289.983 25.1654C289.428 24.9688 288.827 24.9405 288.256 25.0842C287.684 25.2279 287.168 25.5372 286.772 25.9732C285.209 27.4753 283.533 28.8569 281.761 30.1062C275.807 35.0154 260.22 37.7549 252.605 24.8497C249.666 19.8705 250.166 12.4382 250.166 12.0765C250.167 10.0149 249.641 7.98718 248.636 6.18685C247.632 4.38653 246.183 2.87362 244.427 1.79243C242.672 0.711248 240.669 0.0978571 238.609 0.0107716C236.549 -0.076314 234.502 0.365811 232.661 1.29497C230.821 2.22413 229.249 3.60933 228.096 5.31844C226.943 7.02755 226.248 9.00355 226.075 11.058C225.903 13.1124 226.26 15.1767 227.112 17.0539C227.964 18.9311 229.283 20.5587 230.943 21.7814C234.17 24.0249 236.516 27.3218 237.577 31.106C238.795 35.9708 238.042 42.5466 230.156 49.3718C224.008 54.6973 218.515 50.4787 213.279 61.8482C210.556 67.7612 213.935 75.041 212.329 82.6144C211.748 85.3571 215 87.4586 217.68 86.6341C222.008 85.3203 225.704 82.467 228.07 78.6133C228.607 77.7169 229.452 77.0474 230.448 76.7308C231.444 76.4142 232.521 76.4723 233.477 76.8941C233.999 77.1457 234.462 77.5045 234.836 77.9471C235.21 78.3898 235.486 78.9063 235.647 79.463C235.808 80.0196 235.85 80.604 235.77 81.1779C235.69 81.7518 235.49 82.3024 235.183 82.7938C232.091 87.8869 227.381 91.7962 221.805 93.8963C219.425 94.7948 217.476 96.5642 216.352 98.846C215.228 101.128 215.012 103.752 215.75 106.186L215.795 106.329C216.389 108.125 216.437 110.057 215.933 111.88C215.429 113.702 214.397 115.335 212.965 116.571C207.406 121.24 198.444 120.498 196.85 121.09C194.734 121.831 192.903 123.217 191.616 125.054C190.328 126.89 189.65 129.084 189.675 131.327C189.736 133.803 190.663 136.179 192.294 138.044C193.925 139.908 196.158 141.142 198.604 141.532C201.05 141.922 203.556 141.442 205.685 140.177C207.815 138.913 209.435 136.942 210.263 134.607C211.07 132.191 212.387 129.977 214.125 128.114C215.501 126.467 217.306 125.234 219.341 124.55C227.465 122.361 237.631 124.02 241.352 137.372C241.958 139.546 243.022 141.804 243.54 144.433C243.678 145.229 244.043 145.967 244.592 146.56C245.141 147.152 245.849 147.573 246.632 147.77C247.168 147.893 247.724 147.906 248.265 147.807C248.805 147.709 249.321 147.501 249.778 147.196C250.236 146.891 250.627 146.496 250.927 146.035C251.226 145.574 251.429 145.057 251.522 144.515C251.902 142.208 253.248 139.076 254.067 135.189C255.613 127.823 261.544 120.674 271.575 117.235C272.494 116.897 273.502 116.885 274.429 117.201C275.356 117.516 276.147 118.141 276.669 118.97C276.968 119.481 277.153 120.051 277.213 120.64C277.272 121.229 277.203 121.825 277.012 122.385C276.82 122.946 276.51 123.458 276.103 123.888C275.695 124.318 275.2 124.655 274.651 124.877C271.933 125.953 269.385 127.416 267.086 129.221C262.78 132.634 266.722 139.453 271.768 137.277C278.713 134.056 286.486 133.07 294.015 134.456C299.623 135.415 301.034 140.396 300.54 146.824C300.244 148.542 300.237 150.297 300.521 152.017C301.146 154.527 302.669 156.723 304.801 158.189C306.934 159.654 309.529 160.289 312.097 159.974C314.665 159.658 317.03 158.414 318.744 156.476C320.458 154.537 321.404 152.039 321.403 149.451C321.403 144.515 319.194 139.95 312.952 139.087C311.119 138.833 309.406 138.026 308.045 136.772C306.683 135.519 305.738 133.879 305.334 132.073L305.311 131.97C305.005 130.484 305.128 128.941 305.666 127.522C308.917 118.751 318.112 116.889 323.97 116.588C324.579 116.555 325.166 116.347 325.661 115.99C326.155 115.633 326.537 115.141 326.76 114.573C326.983 114.005 327.038 113.385 326.918 112.787C326.798 112.188 326.509 111.637 326.085 111.198C325.755 110.863 325.427 110.516 325.1 110.157C323.396 108.277 322.123 106.046 321.373 103.621C320.622 101.196 320.411 98.6365 320.754 96.1215C321.247 92.5082 321.46 88.8621 321.39 85.2159C321.311 80.8464 320.585 76.5127 319.236 72.356V72.356C318.574 68.5564 318.381 64.6899 318.661 60.8433C318.89 58.8048 319.662 56.8652 320.897 55.2267C322.131 53.5882 323.783 52.3109 325.679 51.528C327.993 50.5073 329.866 48.6926 330.959 46.4116C332.052 44.1306 332.294 41.5339 331.639 39.0906C330.985 36.6472 329.479 34.5185 327.392 33.0889C325.305 31.6593 322.776 31.0233 320.261 31.2956L320.265 31.3039ZM244.372 66.1142C244.372 64.4858 244.855 62.8939 245.759 61.5399C246.664 60.1858 247.949 59.1304 249.454 58.5071C250.958 57.8838 252.614 57.7206 254.211 58.0381C255.808 58.3557 257.275 59.1397 258.427 60.2911C259.578 61.4425 260.362 62.9095 260.68 64.5066C260.998 66.1037 260.835 67.7591 260.212 69.2636C259.589 70.7681 258.533 72.054 257.179 72.9587C255.825 73.8634 254.234 74.3463 252.605 74.3463C250.422 74.3463 248.328 73.479 246.784 71.9352C245.24 70.3914 244.372 68.2976 244.372 66.1142V66.1142ZM253.648 106.632C252.02 106.633 250.428 106.15 249.074 105.245C247.72 104.341 246.664 103.055 246.041 101.551C245.418 100.046 245.255 98.3909 245.572 96.7938C245.89 95.1967 246.674 93.7296 247.825 92.578C248.977 91.4265 250.444 90.6423 252.041 90.3245C253.638 90.0068 255.293 90.1697 256.798 90.7929C258.302 91.416 259.588 92.4712 260.493 93.8252C261.397 95.1791 261.88 96.771 261.88 98.3994C261.88 100.582 261.012 102.676 259.468 104.219C257.924 105.762 255.83 106.629 253.647 106.629L253.648 106.632ZM274.598 77.5672C274.598 76.6382 274.873 75.7301 275.389 74.9578C275.906 74.1854 276.639 73.5834 277.497 73.2279C278.356 72.8724 279.3 72.7794 280.211 72.9606C281.122 73.1418 281.959 73.5891 282.616 74.246C283.273 74.9029 283.72 75.7398 283.901 76.6509C284.083 77.562 283.99 78.5063 283.634 79.3646C283.279 80.2228 282.677 80.9563 281.904 81.4724C281.132 81.9885 280.224 82.264 279.295 82.264C278.678 82.2643 278.067 82.1429 277.497 81.9069C276.927 81.671 276.409 81.3249 275.972 80.8886C275.536 80.4523 275.19 79.9343 274.954 79.3642C274.718 78.7942 274.597 78.1831 274.597 77.5661L274.598 77.5672ZM284.493 107.812C283.786 107.91 283.066 107.797 282.423 107.487C281.781 107.176 281.245 106.682 280.883 106.067C280.522 105.452 280.351 104.744 280.392 104.031C280.433 103.319 280.684 102.635 281.114 102.065C281.544 101.496 282.133 101.067 282.807 100.832C283.481 100.597 284.209 100.568 284.9 100.747C285.59 100.927 286.212 101.307 286.687 101.839C287.161 102.372 287.467 103.034 287.566 103.74C287.631 104.21 287.603 104.687 287.484 105.146C287.365 105.604 287.156 106.035 286.87 106.413C286.585 106.791 286.227 107.109 285.818 107.349C285.41 107.589 284.958 107.745 284.488 107.811L284.493 107.812ZM301.034 96.2102C299.405 96.2102 297.813 95.7272 296.459 94.8224C295.105 93.9175 294.05 92.6314 293.427 91.1268C292.804 89.6222 292.641 87.9665 292.959 86.3694C293.277 84.7722 294.062 83.3052 295.214 82.1539C296.366 81.0027 297.833 80.2189 299.43 79.9017C301.028 79.5845 302.683 79.7481 304.187 80.3719C305.692 80.9956 306.977 82.0515 307.882 83.406C308.786 84.7605 309.268 86.3527 309.267 87.9812C309.266 90.1641 308.398 92.2573 306.854 93.8005C305.311 95.3437 303.217 96.2105 301.034 96.2102V96.2102Z" fill="#464965"/>
<path d="M71.9417 7.34762C70.612 8.42662 69.5205 9.76972 68.7363 11.292C67.6184 13.5569 67.3041 16.1345 67.8447 18.6017C68.7466 23.0099 71.7232 30.0423 81.5425 28.3014C88.4605 27.0759 90.3848 21.8081 90.6126 16.9639C90.7204 14.5431 90.063 12.1498 88.7337 10.1237C87.4044 8.09767 85.4707 6.54177 83.2071 5.67688V5.67688C81.3484 4.93922 79.328 4.70526 77.3499 4.99862C75.3719 5.29198 73.5063 6.10227 71.9417 7.34762V7.34762Z" fill="#464965"/>
<path d="M198.383 258.234C197.386 259.028 196.566 260.02 195.973 261.149C195.133 262.818 194.896 264.726 195.304 266.55C195.982 269.809 198.219 275.002 205.601 273.72C210.803 272.814 212.249 268.921 212.423 265.336C212.496 263.536 211.997 261.759 210.997 260.26C209.997 258.761 208.548 257.618 206.858 256.994C205.459 256.448 203.942 256.275 202.456 256.493C200.971 256.71 199.567 257.31 198.383 258.234Z" fill="url(#paint9_linear)"/>
<path d="M156.923 290.494C152.697 285.664 146.486 277.325 145.516 269.092C144.95 264.606 145.348 260.05 146.683 255.73C143.434 256.702 140.086 257.304 136.702 257.526C135.611 262.722 132.996 267.476 129.191 271.18C132.16 271.855 134.961 273.124 137.425 274.912C139.888 276.701 141.964 278.97 143.526 281.583C146.016 285.656 148.293 289.856 150.348 294.165C152.2 292.414 154.46 291.152 156.923 290.494Z" fill="#464965"/>
<path d="M80.9932 264.026C83.7266 269.242 92.1246 281.247 111.471 281.247C129.109 281.247 137.144 269.21 139.608 260.93C152.197 259.556 172.48 251.499 174.305 228.248C174.456 226.84 175.606 213.105 164.439 202.811C159.152 198.128 155.562 191.827 154.231 184.89C154.058 183.911 153.921 182.96 153.825 182.059C153.488 178.685 152.286 175.455 150.336 172.68C148.386 169.906 145.754 167.681 142.694 166.22C134.295 162.219 121.433 159.048 107.857 166.678C104.311 168.709 100.318 169.832 96.2339 169.949C89.2808 170.101 82.4544 171.84 76.2768 175.035C71.6173 177.445 67.7467 181.141 65.1241 185.685C62.5016 190.228 61.2369 195.429 61.4803 200.669L61.4978 201.014C61.7593 205.711 60.6538 210.383 58.3151 214.465C54.888 220.457 51.3342 229.852 53.8058 240.644C54.9973 248.655 62.1636 263.181 80.9932 264.026ZM64.5744 218.046C67.6059 212.755 69.038 206.699 68.6971 200.61L68.6827 200.325C68.503 196.465 69.4342 192.636 71.3657 189.29C73.2973 185.944 76.1482 183.222 79.5801 181.448C84.774 178.758 90.5142 177.292 96.3617 177.161C101.64 177.023 106.802 175.582 111.388 172.966C122.272 166.852 132.73 169.462 139.59 172.733C141.535 173.668 143.207 175.089 144.444 176.858C145.68 178.627 146.44 180.686 146.65 182.834C146.763 183.894 146.922 185.006 147.122 186.139C148.722 194.637 153.091 202.365 159.546 208.118C162.165 210.58 164.204 213.594 165.515 216.941C166.827 220.288 167.378 223.885 167.13 227.471C167.122 227.525 167.117 227.574 167.113 227.633C165.197 252.54 137.739 253.88 136.577 253.924C135.747 253.957 134.953 254.273 134.328 254.82C133.703 255.368 133.286 256.113 133.145 256.932C133.024 257.631 129.978 274.034 111.471 274.034C92.4668 274.034 86.9248 259.811 86.7053 259.228C86.4531 258.531 85.9922 257.928 85.3853 257.502C84.7783 257.076 84.0548 256.848 83.3133 256.847H83.2556C83.0793 256.847 82.9061 256.847 82.733 256.847C63.7416 256.847 61.0278 240.171 60.9227 239.471C60.9072 239.368 60.8876 239.256 60.8629 239.15C58.8562 230.581 61.774 222.943 64.5744 218.046V218.046Z" fill="#464965"/>
<path d="M45.0502 67.5232C41.5423 67.5232 38.1132 68.5634 35.1965 70.5123C32.2798 72.4612 30.0066 75.2312 28.6642 78.4721C27.3218 81.713 26.9707 85.2792 27.6551 88.7197C28.3395 92.1602 30.0288 95.3204 32.5093 97.8008C34.9899 100.281 38.1502 101.97 41.5907 102.655C45.0313 103.339 48.5974 102.987 51.8382 101.645C55.079 100.302 57.8489 98.0288 59.7977 95.112C61.7464 92.1952 62.7864 88.766 62.7862 85.2581C62.7813 80.5559 60.9111 76.0476 57.586 72.7227C54.2609 69.3978 49.7525 67.5278 45.0502 67.5232ZM45.0502 95.7794C42.9693 95.7794 40.9352 95.1623 39.2049 94.0062C37.4747 92.8501 36.1262 91.2069 35.3299 89.2844C34.5336 87.3619 34.3252 85.2465 34.7312 83.2056C35.1371 81.1646 36.1392 79.2899 37.6106 77.8185C39.082 76.3471 40.9567 75.345 42.9976 74.9391C45.0386 74.5331 47.154 74.7415 49.0765 75.5378C50.999 76.3341 52.6422 77.6827 53.7983 79.4129C54.9544 81.1431 55.5714 83.1772 55.5714 85.2581C55.5682 88.0475 54.4586 90.7218 52.4862 92.6942C50.5138 94.6666 47.8396 95.7761 45.0502 95.7794Z" fill="#464965"/>
<path d="M36.0987 167.515C36.0987 163.945 35.0401 160.455 33.0568 157.487C31.0735 154.519 28.2546 152.206 24.9565 150.84C21.6584 149.473 18.0293 149.116 14.5281 149.812C11.0269 150.509 7.81078 152.228 5.28654 154.752C2.76229 157.276 1.04326 160.492 0.346821 163.994C-0.349617 167.495 0.00782037 171.124 1.37393 174.422C2.74004 177.72 5.05347 180.539 8.02167 182.522C10.9899 184.506 14.4795 185.564 18.0493 185.564C22.8347 185.559 27.4224 183.655 30.8061 180.272C34.1899 176.888 36.0932 172.3 36.0987 167.515V167.515ZM7.21583 167.515C7.21583 165.372 7.85129 163.277 9.04185 161.495C10.2324 159.714 11.9246 158.325 13.9044 157.505C15.8842 156.685 18.0627 156.47 20.1645 156.889C22.2662 157.307 24.1967 158.339 25.7119 159.854C27.2271 161.369 28.2589 163.3 28.6769 165.402C29.0948 167.504 28.8801 169.682 28.0599 171.662C27.2397 173.642 25.8509 175.334 24.069 176.524C22.2871 177.714 20.1923 178.35 18.0493 178.349C15.177 178.346 12.4234 177.203 10.3924 175.172C8.3615 173.141 7.2191 170.387 7.21583 167.515V167.515Z" fill="#464965"/>
<path d="M160.9 324.334C164.656 324.334 168.328 323.22 171.451 321.133C174.574 319.046 177.008 316.08 178.446 312.61C179.883 309.14 180.259 305.321 179.527 301.637C178.794 297.953 176.985 294.569 174.329 291.913C171.673 289.257 168.289 287.449 164.605 286.716C160.921 285.983 157.103 286.359 153.632 287.796C150.162 289.234 147.196 291.668 145.109 294.791C143.023 297.914 141.909 301.586 141.909 305.342C141.914 310.377 143.917 315.205 147.477 318.765C151.038 322.325 155.865 324.328 160.9 324.334V324.334ZM160.9 293.566C163.229 293.566 165.506 294.256 167.443 295.55C169.379 296.844 170.889 298.684 171.78 300.836C172.672 302.987 172.905 305.355 172.45 307.64C171.996 309.924 170.874 312.023 169.227 313.67C167.58 315.317 165.482 316.438 163.198 316.893C160.913 317.347 158.545 317.114 156.393 316.222C154.241 315.331 152.402 313.822 151.108 311.885C149.814 309.948 149.123 307.671 149.123 305.342C149.127 302.22 150.369 299.227 152.577 297.019C154.784 294.811 157.778 293.569 160.9 293.566V293.566Z" fill="#464965"/>
<path d="M250.779 235.957C250.779 239.851 251.933 243.659 254.097 246.897C256.261 250.136 259.336 252.66 262.934 254.151C266.533 255.641 270.492 256.031 274.312 255.272C278.132 254.512 281.641 252.636 284.395 249.882C287.149 247.128 289.025 243.62 289.785 239.8C290.545 235.98 290.155 232.02 288.664 228.422C287.174 224.824 284.65 221.748 281.412 219.584C278.173 217.42 274.366 216.265 270.471 216.265C265.25 216.271 260.245 218.348 256.554 222.039C252.862 225.731 250.785 230.736 250.779 235.957V235.957ZM282.949 235.957C282.949 238.424 282.217 240.837 280.846 242.889C279.475 244.941 277.527 246.54 275.247 247.485C272.967 248.429 270.458 248.677 268.037 248.195C265.617 247.714 263.394 246.526 261.649 244.781C259.903 243.036 258.715 240.813 258.233 238.392C257.752 235.972 257.999 233.463 258.943 231.183C259.888 228.903 261.487 226.954 263.539 225.583C265.591 224.212 268.003 223.48 270.471 223.48C273.779 223.484 276.95 224.8 279.289 227.139C281.628 229.477 282.944 232.649 282.949 235.957Z" fill="#464965"/>
<path d="M113.692 107.504C118.092 107.504 122.393 106.2 126.051 103.755C129.71 101.311 132.561 97.8364 134.245 93.7714C135.929 89.7064 136.369 85.2334 135.511 80.9181C134.652 76.6027 132.534 72.6388 129.422 69.5276C126.311 66.4164 122.347 64.2977 118.032 63.4393C113.717 62.5809 109.244 63.0215 105.179 64.7052C101.114 66.389 97.6392 69.2403 95.1947 72.8987C92.7503 76.5571 91.4456 80.8582 91.4456 85.2581C91.4521 91.1562 93.798 96.8108 97.9686 100.981C102.139 105.152 107.794 107.498 113.692 107.504V107.504ZM113.692 70.2276C116.665 70.2276 119.571 71.1093 122.043 72.761C124.515 74.4127 126.442 76.7604 127.579 79.5071C128.717 82.2538 129.015 85.2762 128.434 88.192C127.854 91.1079 126.423 93.7862 124.32 95.8884C122.218 97.9905 119.54 99.4221 116.624 100.002C113.708 100.582 110.685 100.284 107.939 99.1461C105.192 98.0083 102.845 96.0815 101.193 93.6094C99.5415 91.1374 98.6601 88.2311 98.6603 85.2581C98.665 81.273 100.25 77.4525 103.068 74.6347C105.886 71.8169 109.707 70.232 113.692 70.2276V70.2276Z" fill="#464965"/>
<path d="M197.826 195.354C198.171 195.545 198.515 195.734 198.857 195.9C198.978 195.964 199.103 196.022 199.23 196.072C205.93 199.124 212.994 197.715 219.669 191.994C223.006 189.091 225.259 185.141 226.058 180.79C226.858 176.44 226.157 171.947 224.071 168.047V168.047C220.67 161.724 212.075 157.208 204.874 157.984C203.702 158.112 202.543 158.341 201.41 158.669C197.339 159.904 193.805 162.481 191.385 165.98C191.312 166.083 184.013 175.942 174.639 181.227C173.395 181.931 172.332 182.917 171.536 184.105C170.74 185.293 170.233 186.65 170.055 188.069C169.877 189.429 170.025 190.811 170.487 192.103C170.949 193.394 171.71 194.558 172.71 195.497L172.903 195.676C174.536 197.162 176.664 197.985 178.871 197.983C180.473 197.981 182.045 197.555 183.428 196.746C186.356 195.04 192.108 192.601 197.826 195.354ZM177.744 190.328L177.659 190.249C177.485 190.085 177.354 189.881 177.276 189.655C177.199 189.429 177.177 189.187 177.214 188.951C177.251 188.652 177.358 188.365 177.526 188.115C177.694 187.864 177.919 187.656 178.182 187.508C188.942 181.442 196.873 170.693 197.249 170.184C198.694 167.967 200.884 166.34 203.423 165.595C206.119 164.834 208.991 164.998 211.582 166.061C214.174 167.123 216.334 169.023 217.72 171.457V171.457C219.035 173.906 219.48 176.729 218.982 179.464C218.484 182.198 217.073 184.683 214.979 186.512C208.209 192.313 203.092 189.93 201.091 188.911C192.4 184.479 183.994 188.066 179.803 190.504C179.485 190.696 179.115 190.783 178.745 190.751C178.375 190.719 178.024 190.571 177.744 190.328V190.328Z" fill="#464965"/>
<defs>
<linearGradient id="paint0_linear" x1="113.048" y1="154.264" x2="114.422" y2="315.051" gradientUnits="userSpaceOnUse">
<stop stop-color="#FF6185"/>
<stop offset="1" stop-color="#E2407A"/>
</linearGradient>
<linearGradient id="paint1_linear" x1="1522.32" y1="2997.15" x2="1615.39" y2="8675.2" gradientUnits="userSpaceOnUse">
<stop stop-color="#FF6185"/>
<stop offset="1" stop-color="#E2407A"/>
</linearGradient>
<linearGradient id="paint2_linear" x1="764.669" y1="4864.44" x2="803.171" y2="9370.33" gradientUnits="userSpaceOnUse">
<stop stop-color="#FF6185"/>
<stop offset="1" stop-color="#E2407A"/>
</linearGradient>
<linearGradient id="paint3_linear" x1="5185.13" y1="5272.52" x2="5226.14" y2="10072.3" gradientUnits="userSpaceOnUse">
<stop stop-color="#FF6185"/>
<stop offset="1" stop-color="#E2407A"/>
</linearGradient>
<linearGradient id="paint4_linear" x1="8909.26" y1="3437.23" x2="9015.26" y2="9901.92" gradientUnits="userSpaceOnUse">
<stop stop-color="#FF6185"/>
<stop offset="1" stop-color="#E2407A"/>
</linearGradient>
<linearGradient id="paint5_linear" x1="4540.07" y1="3050.73" x2="4540.07" y2="5780.76" gradientUnits="userSpaceOnUse">
<stop stop-color="#FF6185"/>
<stop offset="1" stop-color="#E2407A"/>
</linearGradient>
<linearGradient id="paint6_linear" x1="3777.92" y1="2413.16" x2="3777.92" y2="3771.41" gradientUnits="userSpaceOnUse">
<stop stop-color="#FF6185"/>
<stop offset="0.0001" stop-color="#CC4341"/>
<stop offset="1" stop-color="#CC4341"/>
</linearGradient>
<linearGradient id="paint7_linear" x1="5345" y1="3149.31" x2="5345" y2="5051.3" gradientUnits="userSpaceOnUse">
<stop stop-color="#FF6185"/>
<stop offset="1" stop-color="#E2407A"/>
</linearGradient>
<linearGradient id="paint8_linear" x1="10060.9" y1="5473.75" x2="10090.1" y2="10600.2" gradientUnits="userSpaceOnUse">
<stop stop-color="#FF6185"/>
<stop offset="1" stop-color="#E2407A"/>
</linearGradient>
<linearGradient id="paint9_linear" x1="3774.47" y1="3519.28" x2="3774.47" y2="5609.21" gradientUnits="userSpaceOnUse">
<stop stop-color="#FF6185"/>
<stop offset="1" stop-color="#E2407A"/>
</linearGradient>
</defs>
</svg>
