<svg width="70" height="70" viewBox="0 0 70 70" fill="none" xmlns="http://www.w3.org/2000/svg">
<path d="M18.0645 32.7419L18.1097 32.8097L10.2629 38.5226L10.1613 38.3871H7.33869C6.5901 38.3871 5.87216 38.0897 5.34283 37.5604C4.81349 37.0311 4.51611 36.3131 4.51611 35.5645C4.51611 34.8159 4.81349 34.098 5.34283 33.5687C5.87216 33.0393 6.5901 32.7419 7.33869 32.7419H18.0645Z" fill="#F2B59D"/>
<path d="M25.9677 27.0967L18.1096 32.8096L18.0645 32.7418H10.7258C9.97718 32.7418 9.25925 32.4445 8.72991 31.9151C8.20058 31.3858 7.9032 30.6679 7.9032 29.9193C7.9032 29.1707 8.20058 28.4527 8.72991 27.9234C9.25925 27.3941 9.97718 27.0967 10.7258 27.0967H25.9677Z" fill="#F2B59D"/>
<path d="M60.9678 21.4515V21.9032L48.4694 22.5241L44.4839 19.8032C43.5982 19.0439 43.0393 17.9724 42.9236 16.8116C42.808 15.6507 43.1444 14.49 43.863 13.5709C44.3273 12.9795 44.996 12.5832 45.7377 12.4599C46.4794 12.3367 47.2404 12.4953 47.871 12.9048L60.9678 21.4515Z" fill="#F2B59D"/>
<path d="M69.9999 41.7743V48.5485H67.7419L67.0757 49.0453C64.5776 50.9197 61.5392 51.9339 58.4161 51.9356H57.8854C56.9336 51.9384 55.9841 51.8439 55.0515 51.6533L45.3757 49.7227C47.7162 48.3688 49.7592 46.5562 51.3822 44.3936L54.1935 40.6453L69.9999 41.7743Z" fill="#F2B59D"/>
<path d="M60.9677 21.9033L48.4693 22.5243L47.4193 22.5807L37.2581 18.0646L29.3548 16.9355H13.5484C12.9501 16.9373 12.3767 17.1758 11.9537 17.5989C11.5306 18.022 11.2921 18.5953 11.2903 19.1936C11.2896 19.7869 11.4059 20.3745 11.6326 20.9227C11.8593 21.471 12.1919 21.9691 12.6114 22.3887C13.0309 22.8082 13.5291 23.1408 14.0773 23.3675C14.6256 23.5942 15.2132 23.7105 15.8064 23.7097H25.9677V27.0968L18.1097 32.8097L10.2629 38.5226L2.66452 44.0436C2.02682 44.5086 1.55252 45.1633 1.30949 45.9141C1.06645 46.665 1.06714 47.4735 1.31143 48.2239C1.55573 48.9743 2.03113 49.6283 2.66961 50.0921C3.30809 50.556 4.07693 50.8061 4.86613 50.8065H5.50968C5.94601 50.8077 6.37871 50.7273 6.78548 50.5694L7.35 50.1754C7.18895 50.3418 6.99727 50.4756 6.78548 50.5694L1.44516 54.3178C0.999316 54.6284 0.635095 55.0421 0.383482 55.5237C0.131869 56.0053 0.000310955 56.5406 0 57.0839V57.592C0.000598153 58.4871 0.356454 59.3454 0.989411 59.9784C1.62237 60.6113 2.48067 60.9672 3.37581 60.9678C4.11453 60.9713 4.83344 60.729 5.41935 60.2791L6.00645 59.8275L6.01774 59.8388C5.77462 60.2899 5.64664 60.794 5.64516 61.3065C5.64516 62.115 5.96633 62.8904 6.53801 63.462C7.1097 64.0337 7.88506 64.3549 8.69355 64.3549H9.15645C9.80795 64.3591 10.4427 64.1488 10.9629 63.7565L17.1952 59.1613C16.9978 59.5996 16.9132 60.0802 16.949 60.5594C16.9849 61.0387 17.14 61.5014 17.4004 61.9054C17.6607 62.3094 18.018 62.6418 18.4396 62.8724C18.8613 63.1031 19.3339 63.2246 19.8145 63.2259H20.5484C21.1361 63.2241 21.71 63.0472 22.1968 62.7178L33.5097 54.871C35.2466 53.6759 37.1586 52.7579 39.1774 52.1501L41.0855 51.5742C42.5835 51.128 44.0235 50.5065 45.3758 49.7226C47.7163 48.3688 49.7593 46.5562 51.3823 44.3936L54.1935 40.6452L70 41.7743V21.4517L60.9677 21.9033Z" fill="#F2C4B2"/>
<path d="M28.2258 42.0125C28.2261 41.6775 28.1327 41.3491 27.9562 41.0644C27.7798 40.7797 27.5273 40.55 27.2272 40.4011C26.9271 40.2523 26.5914 40.1902 26.258 40.222C25.9245 40.2537 25.6066 40.378 25.34 40.5809L0.588257 59.3871C1.00791 60.0541 1.64658 60.5543 2.39471 60.8018C2.46132 60.8221 2.5268 60.847 2.59455 60.8639C2.71313 60.8891 2.83298 60.908 2.95358 60.9204C3.06581 60.9378 3.17886 60.9495 3.29229 60.9554C3.39955 60.9554 3.5068 60.9554 3.61293 60.9441C3.69309 60.9441 3.77439 60.9362 3.85342 60.9249C3.96748 60.9071 4.08054 60.8834 4.19213 60.8538C4.26551 60.8357 4.34003 60.8222 4.41116 60.7996C4.53042 60.7588 4.64727 60.7113 4.76116 60.6573C4.81874 60.6313 4.87971 60.611 4.93503 60.5817C5.10492 60.495 5.26697 60.3937 5.41939 60.2791L6.00648 59.8275L27.5168 43.443C27.7373 43.2753 27.916 43.059 28.039 42.8108C28.162 42.5627 28.2259 42.2894 28.2258 42.0125V42.0125Z" fill="#F2B59D"/>
<path d="M31.6128 47.6374C31.6112 47.3033 31.5171 46.9763 31.3408 46.6925C31.1645 46.4088 30.913 46.1795 30.6142 46.0301C30.3154 45.8807 29.9811 45.8171 29.6483 45.8463C29.3156 45.8755 28.9974 45.9964 28.7292 46.1956L6.24908 63.0554C6.42352 63.2912 6.62897 63.5024 6.85989 63.6832C7.46708 64.1317 8.2051 64.3678 8.95989 64.355H9.15634C9.80785 64.3592 10.4426 64.1489 10.9628 63.7566L17.1951 59.1614L30.8789 49.0893C31.1063 48.9216 31.2911 48.7028 31.4186 48.4506C31.546 48.1985 31.6125 47.9199 31.6128 47.6374V47.6374Z" fill="#F2B59D"/>
<path d="M25.2519 36.6765C25.4435 36.5326 25.6049 36.3523 25.7269 36.1461C25.8489 35.9398 25.929 35.7115 25.9628 35.4743C25.9966 35.237 25.9832 34.9954 25.9236 34.7633C25.864 34.5312 25.7593 34.3131 25.6154 34.1215C25.4715 33.9298 25.2913 33.7684 25.085 33.6464C24.8787 33.5244 24.6505 33.4443 24.4132 33.4105C24.1759 33.3768 23.9344 33.3901 23.7023 33.4497C23.4701 33.5093 23.252 33.614 23.0604 33.7579L1.94299 49.3702C2.02995 49.4885 2.12382 49.6016 2.22412 49.7089C2.57047 50.0568 2.98217 50.3329 3.43556 50.5213C3.88896 50.7096 4.3751 50.8065 4.86606 50.8063H5.50961C5.94594 50.8075 6.37864 50.7271 6.78541 50.5692L10.2628 48.1418L25.2519 36.6765Z" fill="#F2B59D"/>
<path d="M65.4838 21.6775V32.742C65.4838 33.9397 65.008 35.0884 64.1611 35.9354C63.3142 36.7823 62.1655 37.2581 60.9677 37.2581H53.0114C52.6776 37.2573 52.3478 37.331 52.046 37.4737C51.7443 37.6165 51.4782 37.8248 51.2671 38.0834C49.8851 39.7747 46.629 43.6936 44.0322 46.2904C40.6451 49.6775 35 50.8065 35 50.8065L18.1582 62.6952C18.6407 63.042 19.2203 63.2277 19.8145 63.2258H20.5484C21.1361 63.2241 21.71 63.0472 22.1968 62.7178L33.5097 54.871C35.2465 53.6759 37.1586 52.7579 39.1774 52.15L41.0855 51.5742C42.5834 51.128 44.0235 50.5065 45.3758 49.7226C47.7163 48.3687 49.7592 46.5562 51.3822 44.3936L54.1935 40.6452L70 41.7742V21.4517L65.4838 21.6775Z" fill="#F2B59D"/>
<path d="M30.4839 20.3226H16.9355C16.0372 20.3226 15.1757 19.9658 14.5405 19.3306C13.9053 18.6954 13.5484 17.8339 13.5484 16.9355C12.9501 16.9373 12.3768 17.1758 11.9537 17.5989C11.5306 18.022 11.2921 18.5953 11.2903 19.1936C11.2896 19.7869 11.4059 20.3745 11.6326 20.9227C11.8593 21.471 12.1919 21.9691 12.6114 22.3887C13.0309 22.8082 13.5291 23.1408 14.0773 23.3675C14.6256 23.5942 15.2132 23.7105 15.8065 23.7097H25.9678V27.0968L32.742 22.5807C32.742 21.9818 32.5041 21.4075 32.0806 20.984C31.6571 20.5605 31.0828 20.3226 30.4839 20.3226Z" fill="#F2B59D"/>
<path d="M54.1935 40.6453L51.3822 44.3936C49.7592 46.5562 47.7162 48.3688 45.3757 49.7227L51.6475 50.9736C53.5544 49.9575 56.2935 48.2549 57.2419 46.4225C57.4161 46.0543 57.6889 45.7415 58.0301 45.5189C58.3713 45.2963 58.7675 45.1725 59.1748 45.1614H65.6306C66.1905 45.1614 66.7275 45.3838 67.1235 45.7798C67.5194 46.1757 67.7419 46.7127 67.7419 47.2727V48.5485H69.9999V41.7743L54.1935 40.6453Z" fill="#ED9776"/>
<path d="M21.6774 27.0967L17.5248 30.0626C17.1418 30.3365 16.6827 30.4837 16.2118 30.4838H10.1613C9.7055 30.4825 9.26076 30.3434 8.88554 30.0847C8.51032 29.8259 8.22219 29.4597 8.05902 29.0341C7.95927 29.3187 7.90665 29.6177 7.90321 29.9193C7.90202 30.2903 7.97421 30.6578 8.11564 31.0008C8.25706 31.3438 8.46493 31.6554 8.72727 31.9178C8.98961 32.1801 9.30124 32.388 9.64423 32.5294C9.98722 32.6708 10.3548 32.743 10.7258 32.7418H18.0645L18.1097 32.8096L25.9677 27.0967H21.6774Z" fill="#ED9776"/>
<path d="M18.0645 32.7419H15.2419L10.4458 35.9394C10.2612 36.0625 10.0444 36.1284 9.82258 36.129H5.64516C5.38148 36.1267 5.1272 36.0309 4.9275 35.8587C4.72781 35.6865 4.59565 35.449 4.55451 35.1886C4.53312 35.3129 4.5203 35.4385 4.51613 35.5645C4.51493 35.9355 4.58713 36.3031 4.72855 36.6461C4.86998 36.9891 5.07784 37.3007 5.34018 37.563C5.60252 37.8254 5.91415 38.0333 6.25714 38.1747C6.60013 38.3161 6.96771 38.3883 7.33871 38.3871H10.1613L10.2629 38.5226L18.1097 32.8097L18.0645 32.7419Z" fill="#ED9776"/>
<path d="M51.642 20.3225C51.1035 20.3219 50.583 20.1289 50.1743 19.7783L45.4854 15.7612C45.0367 15.3752 44.7584 14.8278 44.7109 14.2379C44.6633 13.6479 44.8503 13.063 45.2314 12.6101C44.6931 12.7937 44.2184 13.127 43.863 13.5709C43.1444 14.49 42.808 15.6507 42.9236 16.8116C43.0393 17.9724 43.5982 19.044 44.4839 19.8032L48.4694 22.5241L60.9678 21.9032V21.4516L59.2381 20.3225H51.642Z" fill="#ED9776"/>
<path d="M42.858 61.6226C42.8898 61.7786 42.905 61.9376 42.9032 62.0968C42.9055 62.2598 42.8903 62.4225 42.858 62.5823C42.8693 62.6049 42.858 62.6274 42.8467 62.6613C42.829 62.8114 42.795 62.959 42.7451 63.1016C42.7381 63.1543 42.7187 63.2046 42.6887 63.2484C42.6641 63.3596 42.6222 63.4663 42.5645 63.5645C42.5553 63.5917 42.5439 63.6181 42.5306 63.6436C42.4516 63.7903 42.3612 63.9258 42.2709 64.0613C42.1712 64.197 42.0618 64.3253 41.9435 64.4452C41.8264 64.5698 41.6979 64.6832 41.5596 64.7839C41.2883 64.9895 40.9877 65.1532 40.6677 65.2694C40.3015 65.4152 39.9103 65.4881 39.5161 65.4839C38.8659 65.4862 38.2289 65.3013 37.6809 64.9513C37.133 64.6013 36.6974 64.101 36.4261 63.5101C36.1549 62.9193 36.0594 62.2628 36.151 61.6191C36.2427 60.9755 36.5177 60.3718 36.9432 59.8802C37.3687 59.3886 37.9267 59.0298 38.5505 58.8468C39.1744 58.6637 39.8377 58.664 40.4614 58.8478C41.0851 59.0315 41.6427 59.3908 42.0676 59.8828C42.4926 60.3749 42.767 60.9788 42.858 61.6226V61.6226Z" fill="#B3F5FF"/>
<path d="M45.1613 60.9678C46.0545 60.9678 46.9276 61.2326 47.6703 61.7289C48.413 62.2251 48.9918 62.9304 49.3336 63.7557C49.6754 64.5809 49.7649 65.4889 49.5906 66.365C49.4164 67.241 48.9862 68.0457 48.3547 68.6773C47.7231 69.3089 46.9184 69.739 46.0423 69.9133C45.1663 70.0875 44.2582 69.9981 43.433 69.6563C42.6078 69.3144 41.9025 68.7356 41.4062 67.9929C40.91 67.2503 40.6451 66.3771 40.6451 65.4839C40.6451 65.4162 40.6677 65.3371 40.6677 65.2694C40.9926 65.1644 41.2951 64.9997 41.5597 64.7839C41.7054 64.6929 41.8351 64.5784 41.9435 64.4452C42.065 64.3283 42.1747 64.1997 42.2709 64.0613C42.3681 63.9289 42.4549 63.7893 42.5306 63.6436C42.544 63.6182 42.5553 63.5917 42.5645 63.5645C42.6222 63.4663 42.6641 63.3597 42.6887 63.2484C42.7188 63.2046 42.7381 63.1543 42.7451 63.1016C42.795 62.959 42.8291 62.8114 42.8468 62.6613C42.858 62.6275 42.8693 62.6049 42.858 62.5823C42.8904 62.4225 42.9055 62.2598 42.9032 62.0968C42.905 61.9376 42.8898 61.7786 42.858 61.6226C43.5516 61.1981 44.3481 60.9716 45.1613 60.9678V60.9678Z" fill="#81D2F5"/>
<path d="M39.7307 51.9805C39.5892 51.6052 39.5165 51.2074 39.5162 50.8063C39.5127 50.2553 39.6445 49.7119 39.9001 49.2237C40.1556 48.7356 40.5271 48.3177 40.982 48.0066C41.4368 47.6956 41.961 47.501 42.5086 47.4399C43.0562 47.3788 43.6105 47.4531 44.1226 47.6563C44.2387 47.0484 44.4799 46.4713 44.831 45.9617C45.1822 45.4521 45.6355 45.0211 46.1622 44.6962C46.6889 44.3713 47.2774 44.1595 47.8904 44.0743C48.5033 43.9891 49.1273 44.0324 49.7226 44.2014C49.8165 43.2296 50.2683 42.3274 50.9902 41.6701C51.7122 41.0129 52.6527 40.6475 53.6291 40.645C53.8145 40.6427 53.9997 40.6579 54.1823 40.6902C55.1639 40.8395 56.0533 41.3529 56.6736 42.1282C57.2939 42.9035 57.5996 43.8839 57.5298 44.8743C57.4601 45.8648 57.0201 46.7927 56.2973 47.4734C55.5745 48.1542 54.6219 48.5379 53.6291 48.5482C53.4362 48.5406 53.244 48.5218 53.0533 48.4918C53.0624 48.5091 53.0663 48.5287 53.0646 48.5482C53.0646 49.746 52.5888 50.8947 51.7418 51.7416C50.8949 52.5885 49.7462 53.0643 48.5484 53.0643C47.6219 53.0647 46.7183 52.7767 45.963 52.2402C45.6816 52.8454 45.2272 53.3537 44.6572 53.7008C44.0871 54.048 43.427 54.2184 42.7601 54.1906C42.0933 54.1628 41.4496 53.9381 40.9104 53.5447C40.3713 53.1513 39.9607 52.607 39.7307 51.9805V51.9805Z" fill="#96E0FF"/>
<path d="M39.5161 3.3871C39.9246 3.38795 40.3252 3.49958 40.6752 3.71011C41.0253 3.92063 41.3116 4.22216 41.5039 4.58258C41.6961 4.94299 41.7869 5.3488 41.7667 5.75677C41.7465 6.16474 41.6161 6.55959 41.3892 6.89927C41.1623 7.23895 40.8476 7.51073 40.4785 7.68566C40.1094 7.8606 39.6997 7.93213 39.2932 7.89265C38.8866 7.85316 38.4984 7.70414 38.1698 7.46145C37.8413 7.21876 37.5847 6.8915 37.4274 6.51452C37.0167 6.68814 36.575 6.77649 36.129 6.77419C35.4591 6.77419 34.8043 6.57554 34.2473 6.20336C33.6903 5.83119 33.2561 5.30219 32.9998 4.68328C32.7434 4.06437 32.6763 3.38334 32.807 2.72631C32.9377 2.06928 33.2603 1.46575 33.734 0.992059C34.2077 0.518365 34.8112 0.195775 35.4683 0.0650836C36.1253 -0.0656082 36.8063 0.00146758 37.4252 0.257829C38.0441 0.51419 38.5731 0.948323 38.9453 1.50533C39.3175 2.06233 39.5161 2.71719 39.5161 3.3871V3.3871Z" fill="#81D2F5"/>
<path d="M19.7241 31.6354C20.1176 32.3147 20.324 33.086 20.3225 33.8709C20.3225 35.0687 19.8467 36.2174 18.9998 37.0643C18.1528 37.9113 17.0041 38.3871 15.8064 38.3871C15.7387 38.3871 15.6709 38.3645 15.6032 38.3645C15.3993 38.9588 15.0336 39.4844 14.5473 39.8823C14.061 40.2801 13.4733 40.5344 12.8504 40.6165C12.2274 40.6986 11.594 40.6053 11.0212 40.3471C10.4484 40.0889 9.95897 39.676 9.60801 39.1548C9.43598 38.8972 9.30283 38.6157 9.21285 38.3193C9.08903 37.9794 9.02783 37.6198 9.0322 37.258C9.03581 36.5565 9.25717 35.8734 9.6657 35.303C10.0742 34.7327 10.6498 34.3033 11.3128 34.0742C11.3128 34.0064 11.2903 33.9387 11.2903 33.8709C11.2887 33.5016 11.3342 33.1336 11.4257 32.7758C11.6458 31.9027 12.1217 31.1154 12.7925 30.5148C13.4632 29.9143 14.2982 29.5279 15.1901 29.4053C16.0821 29.2828 16.9903 29.4296 17.7982 29.827C18.6061 30.2243 19.2768 30.8541 19.7241 31.6354Z" fill="#81D2F5"/>
<path d="M5.64516 16.9356C8.7629 16.9356 11.2903 14.4082 11.2903 11.2904C11.2903 8.17269 8.7629 5.64526 5.64516 5.64526C2.52742 5.64526 0 8.17269 0 11.2904C0 14.4082 2.52742 16.9356 5.64516 16.9356Z" fill="#B3F5FF"/>
<path d="M6.77413 13.5483C5.28182 13.5484 3.85021 12.9575 2.79235 11.9049C1.73448 10.8523 1.13643 9.42369 1.12897 7.9314C0.596538 8.64758 0.241744 9.47994 0.0937762 10.36C-0.0541917 11.2401 0.00889435 12.1427 0.277845 12.9936C0.546795 13.8445 1.01393 14.6195 1.64081 15.2546C2.26769 15.8898 3.03641 16.367 3.88373 16.6471C4.73106 16.9272 5.63277 17.0021 6.5147 16.8657C7.39663 16.7293 8.23357 16.3854 8.95668 15.8625C9.67979 15.3395 10.2684 14.6523 10.6741 13.8574C11.0798 13.0625 11.291 12.1827 11.2903 11.2903C11.2903 11.2801 11.2903 11.2711 11.2903 11.262C10.7688 11.9698 10.0885 12.5453 9.30415 12.9424C8.51981 13.3395 7.65326 13.547 6.77413 13.5483V13.5483Z" fill="#96E0FF"/>
<path d="M15.8065 9.03225C17.6771 9.03225 19.1936 7.51579 19.1936 5.64515C19.1936 3.77451 17.6771 2.25806 15.8065 2.25806C13.9358 2.25806 12.4194 3.77451 12.4194 5.64515C12.4194 7.51579 13.9358 9.03225 15.8065 9.03225Z" fill="#81D2F5"/>
<path d="M12.4193 40.645C14.29 40.645 15.8064 39.1286 15.8064 37.2579C15.8064 35.3873 14.29 33.8708 12.4193 33.8708C10.5487 33.8708 9.03223 35.3873 9.03223 37.2579C9.03223 39.1286 10.5487 40.645 12.4193 40.645Z" fill="#B3F5FF"/>
<path d="M12.4193 38.387C11.7209 38.3857 11.04 38.1679 10.4706 37.7634C9.90119 37.359 9.47122 36.7879 9.23997 36.1289C9.10616 36.4905 9.03588 36.8724 9.03223 37.2579C9.03223 38.1563 9.38908 39.0178 10.0243 39.653C10.6595 40.2882 11.521 40.645 12.4193 40.645C13.3176 40.645 14.1792 40.2882 14.8144 39.653C15.4496 39.0178 15.8064 38.1563 15.8064 37.2579C15.8028 36.8724 15.7325 36.4905 15.5987 36.1289C15.3674 36.7879 14.9375 37.359 14.368 37.7634C13.7986 38.1679 13.1178 38.3857 12.4193 38.387V38.387Z" fill="#96E0FF"/>
<path d="M48.5484 53.0645C51.0425 53.0645 53.0645 51.0425 53.0645 48.5484C53.0645 46.0542 51.0425 44.0322 48.5484 44.0322C46.0542 44.0322 44.0322 46.0542 44.0322 48.5484C44.0322 51.0425 46.0542 53.0645 48.5484 53.0645Z" fill="#B3F5FF"/>
<path d="M48.5484 50.8065C47.5495 50.8046 46.5795 50.4709 45.7909 49.8578C45.0023 49.2447 44.4396 48.387 44.1914 47.4194C44.0087 48.0894 43.9829 48.7925 44.1161 49.474C44.2492 50.1556 44.5378 50.7972 44.9593 51.3491C45.3808 51.901 45.9239 52.3482 46.5464 52.6561C47.1688 52.9639 47.8539 53.1241 48.5484 53.1241C49.2428 53.1241 49.9279 52.9639 50.5503 52.6561C51.1728 52.3482 51.7159 51.901 52.1374 51.3491C52.5589 50.7972 52.8475 50.1556 52.9807 49.474C53.1138 48.7925 53.088 48.0894 52.9053 47.4194C52.6571 48.387 52.0945 49.2447 51.3058 49.8578C50.5172 50.4709 49.5473 50.8046 48.5484 50.8065Z" fill="#96E0FF"/>
<path d="M8.08382 41.7065C8.17381 42.0029 8.30696 42.2844 8.47898 42.542C8.82994 43.0631 9.31934 43.476 9.89214 43.7343C10.4649 43.9925 11.0984 44.0858 11.7213 44.0037C12.3443 43.9216 12.9319 43.6673 13.4182 43.2694C13.9046 42.8716 14.2702 42.346 14.4741 41.7517C14.5419 41.7517 14.6096 41.7742 14.6774 41.7742C15.8751 41.7742 17.0238 41.2984 17.8707 40.4515C18.7177 39.6046 19.1935 38.4559 19.1935 37.2581C19.1935 37.1238 19.1788 36.9928 19.1675 36.8618C18.7475 37.3399 18.2306 37.7232 17.6511 37.9862C17.0716 38.2492 16.4428 38.3859 15.8064 38.3871C15.7387 38.3871 15.6709 38.3646 15.6032 38.3646C15.3993 38.9589 15.0336 39.4845 14.5473 39.8823C14.061 40.2802 13.4733 40.5345 12.8504 40.6166C12.2275 40.6987 11.594 40.6054 11.0212 40.3472C10.4484 40.089 9.95897 39.676 9.60801 39.1549C9.5843 39.1188 9.56737 39.0804 9.54479 39.042L7.93817 40.2117C7.91732 40.3553 7.90563 40.5001 7.90317 40.6452C7.8988 41.007 7.96 41.3665 8.08382 41.7065V41.7065Z" fill="#F2AA8F"/>
<path d="M46.8549 69.0279C46.2842 68.9573 45.7384 68.7523 45.2624 68.4297C44.7864 68.1071 44.3937 67.6761 44.1168 67.1722C43.8398 66.6682 43.6864 66.1057 43.6691 65.531C43.6519 64.9562 43.7713 64.3855 44.0176 63.8659C44.3892 62.99 44.4162 62.0061 44.0933 61.1111C43.6594 61.2212 43.2438 61.3934 42.8592 61.6225C42.8907 61.7786 42.9054 61.9376 42.9033 62.0967C42.9056 62.2597 42.8904 62.4225 42.8581 62.5822C42.8694 62.6048 42.8581 62.6274 42.8468 62.6612C42.8291 62.8113 42.7951 62.9589 42.7452 63.1016C42.7382 63.1542 42.7188 63.2045 42.6888 63.2483C42.6642 63.3596 42.6223 63.4663 42.5646 63.5645C42.5553 63.5917 42.544 63.6181 42.5307 63.6435C42.4549 63.7892 42.3681 63.9288 42.271 64.0612C42.1747 64.1996 42.0651 64.3282 41.9436 64.4451C41.8351 64.5784 41.7054 64.6928 41.5597 64.7838C41.2952 64.9997 40.9927 65.1643 40.6678 65.2693C40.6678 65.3371 40.6452 65.4161 40.6452 65.4838C40.6406 66.3381 40.8797 67.1759 41.3344 67.8991C41.7891 68.6222 42.4406 69.2008 43.2124 69.5669C43.9843 69.9329 44.8445 70.0713 45.6922 69.9659C46.5399 69.8604 47.34 69.5154 47.9986 68.9714C47.6207 69.0337 47.237 69.0526 46.8549 69.0279Z" fill="#66B9DE"/>
<path d="M50.2689 47.9693C50.8729 48.1082 51.2082 47.2422 51.1857 46.6913C51.2037 46.3089 51.1123 45.9293 50.9221 45.5971C50.7319 45.2649 50.4509 44.9939 50.1119 44.8159C49.637 44.5964 49.1035 44.5377 48.5923 44.6488C48.3765 44.6766 48.1737 44.7669 48.0086 44.9085C47.9219 44.9899 47.8592 45.0933 47.8272 45.2078C47.7951 45.3222 47.795 45.4432 47.8268 45.5577C47.879 45.684 47.9598 45.7964 48.0628 45.8863L49.7902 47.6306C49.9153 47.7857 50.081 47.903 50.2689 47.9693V47.9693Z" fill="white"/>
<path d="M17.5272 33.2918C18.1313 33.4307 18.4666 32.5647 18.444 32.0138C18.4621 31.6314 18.3707 31.2518 18.1805 30.9196C17.9903 30.5874 17.7092 30.3164 17.3703 30.1384C16.8954 29.9189 16.3619 29.8603 15.8506 29.9713C15.6349 29.9991 15.432 30.0894 15.2669 30.231C15.1803 30.3124 15.1176 30.4158 15.0855 30.5303C15.0535 30.6447 15.0534 30.7657 15.0851 30.8802C15.1374 31.0065 15.2181 31.119 15.3211 31.2088L17.0485 32.9531C17.1736 33.1082 17.3394 33.2255 17.5272 33.2918V33.2918Z" fill="#B0E8FF"/>
<path d="M55.6612 44.0221C56.0643 44.1147 56.2878 43.5378 56.272 43.1697C56.2842 42.9148 56.2233 42.6618 56.0965 42.4404C55.9697 42.2189 55.7822 42.0384 55.5562 41.9199C55.2389 41.7724 54.882 41.7328 54.5401 41.807C54.3962 41.8261 54.2609 41.8865 54.1506 41.9808C54.0931 42.0354 54.0515 42.1046 54.0302 42.1809C54.009 42.2573 54.0088 42.338 54.0298 42.4144C54.0651 42.4979 54.1188 42.5723 54.1867 42.6323L55.3372 43.7963C55.422 43.9004 55.5343 43.9786 55.6612 44.0221V44.0221Z" fill="#B0E8FF"/>
<path d="M13.887 37.248C14.2901 37.3405 14.5136 36.7636 14.4978 36.3955C14.51 36.1407 14.4491 35.8876 14.3222 35.6662C14.1954 35.4448 14.008 35.2642 13.782 35.1457C13.4647 34.9983 13.1078 34.9586 12.7659 35.0328C12.6219 35.0519 12.4866 35.1123 12.3763 35.2067C12.3189 35.2613 12.2773 35.3304 12.256 35.4068C12.2347 35.4831 12.2346 35.5638 12.2555 35.6402C12.2909 35.7237 12.3445 35.7981 12.4125 35.8581L13.563 37.0222C13.6478 37.1262 13.76 37.2044 13.887 37.248V37.248Z" fill="white"/>
<path d="M42.8909 52.4177C42.9948 52.8219 42.4325 53.068 42.069 53.0646C41.8164 53.0844 41.5635 53.0311 41.3404 52.911C41.1174 52.7908 40.9337 52.609 40.8112 52.3872C40.6566 52.0699 40.6068 51.7117 40.669 51.3643C40.6821 51.2186 40.7369 51.0798 40.8271 50.9646C40.878 50.9047 40.9445 50.8601 41.0192 50.8358C41.094 50.8114 41.174 50.8084 41.2504 50.8269C41.3365 50.8595 41.4138 50.9117 41.4762 50.9793L42.6617 52.1083C42.7644 52.1891 42.8435 52.2959 42.8909 52.4177V52.4177Z" fill="#B0E8FF"/>
<path d="M7.80961 11.2701C8.61348 11.4564 9.0617 10.3014 9.03122 9.56641C9.05529 9.0567 8.93336 8.55071 8.67976 8.10791C8.42616 7.66511 8.05143 7.3039 7.59961 7.06674C6.9669 6.77343 6.25589 6.69417 5.57412 6.84093C5.28623 6.87813 5.01547 6.9986 4.79509 7.18754C4.67973 7.29618 4.59618 7.43422 4.55341 7.5868C4.51064 7.73938 4.51027 7.90074 4.55235 8.05351C4.62246 8.2217 4.73022 8.37157 4.86735 8.49157L7.16719 10.8174C7.33515 11.025 7.55759 11.1818 7.80961 11.2701V11.2701Z" fill="white"/>
<path d="M17.2742 5.63493C17.6773 5.72751 17.9008 5.15058 17.885 4.78251C17.8965 4.5268 17.8344 4.27317 17.7061 4.05166C17.5779 3.83015 17.3888 3.65004 17.1613 3.53267C16.844 3.38524 16.4872 3.34559 16.1452 3.41977C16.0013 3.43885 15.866 3.49924 15.7557 3.59364C15.6982 3.64822 15.6566 3.71737 15.6353 3.79372C15.6141 3.87006 15.6139 3.95076 15.6349 4.02719C15.6702 4.11064 15.7239 4.1851 15.7918 4.24509L16.9423 5.40912C17.0293 5.51438 17.1444 5.5927 17.2742 5.63493V5.63493Z" fill="white"/>
<path d="M37.8495 3.93685C38.4535 4.07572 38.7889 3.20975 38.7663 2.65878C38.7844 2.27642 38.693 1.89683 38.5028 1.56463C38.3126 1.23243 38.0315 0.961425 37.6926 0.78346C37.2177 0.563938 36.6841 0.505274 36.1729 0.616363C35.9572 0.644161 35.7543 0.734423 35.5892 0.87604C35.5026 0.957381 35.4398 1.06087 35.4078 1.17529C35.3758 1.28972 35.3756 1.41074 35.4074 1.52523C35.4596 1.65152 35.5404 1.76397 35.6434 1.85378L37.3708 3.59814C37.4959 3.75323 37.6616 3.8705 37.8495 3.93685V3.93685Z" fill="white"/>
<path d="M40.9838 62.0866C41.3869 62.1792 41.6104 61.6022 41.5946 61.2342C41.6068 60.9793 41.5459 60.7262 41.419 60.5048C41.2922 60.2834 41.1048 60.1028 40.8788 59.9843C40.5615 59.8369 40.2046 59.7972 39.8627 59.8714C39.7187 59.8905 39.5834 59.9509 39.4731 60.0453C39.4157 60.0999 39.3741 60.169 39.3528 60.2454C39.3315 60.3217 39.3314 60.4024 39.3523 60.4789C39.3877 60.5623 39.4413 60.6368 39.5093 60.6968L40.6598 61.8608C40.7446 61.9648 40.8568 62.043 40.9838 62.0866V62.0866Z" fill="white"/>
<path d="M48.0108 66.0338C48.6149 66.1726 48.9502 65.3067 48.9276 64.7557C48.9457 64.3733 48.8543 63.9938 48.6641 63.6616C48.4739 63.3294 48.1928 63.0583 47.8539 62.8804C47.379 62.6609 46.8455 62.6022 46.3342 62.7133C46.1185 62.7411 45.9156 62.8313 45.7505 62.973C45.6639 63.0543 45.6011 63.1578 45.5691 63.2722C45.5371 63.3866 45.5369 63.5077 45.5687 63.6222C45.6209 63.7484 45.7017 63.8609 45.8047 63.9507L47.5321 65.6951C47.6572 65.8502 47.8229 65.9674 48.0108 66.0338V66.0338Z" fill="white"/>
</svg>
