<svg width="70" height="70" viewBox="0 0 70 70" fill="none" xmlns="http://www.w3.org/2000/svg">
<path d="M64.965 25.5373C58.1317 44.9862 44.9897 58.1285 25.539 64.9642L5.0368 44.4616C11.8709 25.0112 25.0129 11.8689 44.4628 5.03467L64.965 25.5373Z" fill="#98DEEA"/>
<path d="M7.19314 41.0768L6.57898 40.4626C6.03707 41.7678 5.51775 43.0955 5.0368 44.4616L25.539 64.9642C44.9904 58.1292 58.1324 44.9869 64.965 25.5373L64.8137 25.386C63.3339 28.9693 61.5472 32.418 59.4736 35.6937C47.94 53.8187 22.3835 56.2675 7.19314 41.0768Z" fill="#00C8C8"/>
<path d="M5.03681 44.4614L4.24653 45.2517C2.90023 46.5978 1.83228 48.1958 1.10365 49.9547C0.375022 51.7135 0 53.5987 0 55.5025C0 57.4063 0.375022 59.2914 1.10365 61.0503C1.83228 62.8091 2.90023 64.4072 4.24653 65.7532V65.7532C5.59255 67.0996 7.19059 68.1675 8.94939 68.8962C10.7082 69.6248 12.5933 69.9998 14.497 69.9998C16.4008 69.9998 18.2859 69.6248 20.0447 68.8962C21.8035 68.1675 23.4015 67.0996 24.7476 65.7532L25.5378 64.9629L5.03681 44.4614ZM21.5966 62.5977C19.7096 64.4564 17.1643 65.4939 14.5156 65.4839C11.8668 65.4739 9.32948 64.4172 7.45654 62.5443C5.5836 60.6713 4.52697 58.1339 4.51697 55.4851C4.50696 52.8363 5.5444 50.291 7.40314 48.4039L8.19342 47.6136L22.3846 61.8096L21.5966 62.5977Z" fill="#E6E6E6"/>
<path d="M65.7529 4.24663C64.4069 2.9003 62.8089 1.83232 61.0501 1.10367C59.2913 0.375031 57.4062 0 55.5024 0C53.5986 0 51.7135 0.375031 49.9547 1.10367C48.1959 1.83232 46.5979 2.9003 45.2519 4.24663L44.4616 5.03693L47.616 8.19135L48.4062 7.40105C50.2959 5.55519 52.837 4.52871 55.4785 4.54425C58.12 4.55979 60.6489 5.6161 62.5167 7.48407C64.3844 9.35204 65.4405 11.8811 65.4559 14.5226C65.4712 17.1642 64.4445 19.7053 62.5986 21.5948L61.8083 22.3851L64.9626 25.5396L65.7529 24.7493C67.0994 23.4032 68.1675 21.805 68.8962 20.0461C69.6249 18.2872 70 16.4019 70 14.4979C70 12.594 69.6249 10.7087 68.8962 8.94979C68.1675 7.19084 67.0994 5.5927 65.7529 4.24663V4.24663Z" fill="#E6E6E6"/>
<path d="M32.743 14.1125C32.4959 14.1131 32.2554 14.0327 32.0585 13.8836C31.8615 13.7345 31.7189 13.5248 31.6525 13.2869C31.5861 13.0489 31.5996 12.7957 31.691 12.5661C31.7823 12.3366 31.9464 12.1433 32.1582 12.016C33.2736 11.3386 34.4342 10.6928 35.606 10.0809C35.8715 9.94229 36.1811 9.91478 36.4668 10.0044C36.6083 10.0488 36.7397 10.1207 36.8534 10.2158C36.9671 10.311 37.061 10.4276 37.1296 10.559C37.1982 10.6905 37.2403 10.8341 37.2534 10.9818C37.2666 11.1295 37.2505 11.2784 37.2061 11.4198C37.1617 11.5613 37.0899 11.6927 36.9947 11.8064C36.8995 11.9201 36.7829 12.0139 36.6515 12.0826C35.5225 12.673 34.4003 13.3019 33.3255 13.9499C33.1497 14.0561 32.9483 14.1123 32.743 14.1125Z" fill="white"/>
<path d="M53.911 14.4855L14.4875 53.9099L16.0905 55.5129L55.514 16.0886L53.911 14.4855Z" fill="#00C8C8"/>
<path d="M49.9936 10.5678C49.9508 10.6082 49.9056 10.6459 49.8581 10.6807C34.7998 21.5733 21.5752 34.7982 10.6828 49.8569C10.6503 49.9064 10.608 49.9486 10.5586 49.9811L8.96674 48.3892C19.9364 33.242 33.2436 19.9345 48.3905 8.9646L49.9936 10.5678Z" fill="#00C8C8"/>
<path d="M61.035 21.6095C50.0653 36.7567 36.7581 50.0643 21.6113 61.0342L20.0081 59.431C20.0509 59.3906 20.0962 59.3529 20.1436 59.3181C35.202 48.4255 48.4266 35.2006 59.319 20.1418C59.3538 20.0944 59.3915 20.0491 59.4319 20.0063L61.035 21.6095Z" fill="#00C8C8"/>
</svg>
