<svg width="46" height="51" viewBox="0 0 46 51" fill="none" xmlns="http://www.w3.org/2000/svg">
<path d="M36.2638 31.1236H8.79126C8.79126 25.9566 8.79126 22.5548 8.79126 17.3873H36.2638C36.2638 18.7852 36.2638 29.3522 36.2638 31.1236Z" fill="#AFA3AE"/>
<path d="M24.1757 50.9038C23.8723 50.9038 23.6263 50.6579 23.6263 50.3544V41.0137H21.4285V50.3544C21.4285 50.6579 21.1824 50.9038 20.879 50.9038C20.5756 50.9038 20.3296 50.6579 20.3296 50.3544V40.4642C20.3296 40.1607 20.5756 39.9148 20.879 39.9148H24.1757C24.4792 39.9148 24.7252 40.1607 24.7252 40.4642V50.3544C24.7252 50.6579 24.4792 50.9038 24.1757 50.9038Z" fill="#D3DCFB"/>
<path d="M43.4065 8.04663C44.6208 8.04663 45.6043 9.03015 45.6043 10.2444C45.6043 11.4587 44.6208 12.4422 43.4065 12.4422C42.1923 12.4422 41.2087 11.4587 41.2087 10.2444C41.2087 9.03015 42.1923 8.04663 43.4065 8.04663Z" fill="#FEE45A"/>
<path d="M43.6814 36.6181C44.1365 36.6181 44.5055 36.2491 44.5055 35.7939C44.5055 35.3387 44.1365 34.9697 43.6814 34.9697C43.2262 34.9697 42.8572 35.3387 42.8572 35.7939C42.8572 36.2491 43.2262 36.6181 43.6814 36.6181Z" fill="#99E6FC"/>
<path d="M40.3846 19.0357C40.8398 19.0357 41.2088 18.6667 41.2088 18.2115C41.2088 17.7563 40.8398 17.3873 40.3846 17.3873C39.9294 17.3873 39.5604 17.7563 39.5604 18.2115C39.5604 18.6667 39.9294 19.0357 40.3846 19.0357Z" fill="#99E6FC"/>
<path d="M36.2638 31.1235V34.2005C36.2638 36.4455 34.4429 38.2664 32.1979 38.2664C26.3894 38.2664 19.3176 38.2664 12.8572 38.2664C10.6121 38.2664 8.79126 36.4455 8.79126 34.2005V31.1235H36.2638Z" fill="#F07281"/>
<path d="M36.2638 11.8928H8.79126V17.3873H36.2638V11.8928Z" fill="#F07281"/>
<path d="M36.2638 8.26645V11.8928H8.79126V8.26645C8.79126 6.02139 10.6121 4.20051 12.8572 4.20051H16.4286C17.0609 4.20051 17.5825 3.68612 17.5825 3.04667C17.5825 1.86315 18.5418 0.903809 19.7253 0.903809H25.3297C26.5126 0.903809 27.4726 1.86183 27.4726 3.04667C27.4726 3.68403 27.9891 4.20051 28.6264 4.20051H32.1979C34.4429 4.20051 36.2638 6.02139 36.2638 8.26645Z" fill="#E9EFFF"/>
<path d="M35.4395 46.5082C35.8947 46.5082 36.2637 46.1392 36.2637 45.684C36.2637 45.2289 35.8947 44.8599 35.4395 44.8599C34.9844 44.8599 34.6154 45.2289 34.6154 45.684C34.6154 46.1392 34.9844 46.5082 35.4395 46.5082Z" fill="#99E6FC"/>
<path d="M26.923 38.2665V40.0247C26.923 40.8742 26.234 41.5632 25.3846 41.5632H24.1758H20.8791H19.6703C18.8208 41.5632 18.1318 40.8742 18.1318 40.0247V38.2665H26.923Z" fill="#D8566C"/>
<path d="M26.3737 22.607V25.9038H24.1759V28.3763H20.8792V25.9038H18.6814V22.607H20.8792V20.1345H24.1759V22.607H26.3737Z" fill="#9BD8F9"/>
<path d="M13.4616 45.9588C13.9168 45.9588 14.2858 45.5898 14.2858 45.1346C14.2858 44.6794 13.9168 44.3104 13.4616 44.3104C13.0064 44.3104 12.6375 44.6794 12.6375 45.1346C12.6375 45.5898 13.0064 45.9588 13.4616 45.9588Z" fill="#99E6FC"/>
<path d="M4.67037 21.2334C5.12555 21.2334 5.49454 20.8644 5.49454 20.4093C5.49454 19.9541 5.12555 19.5851 4.67037 19.5851C4.21519 19.5851 3.84619 19.9541 3.84619 20.4093C3.84619 20.8644 4.21519 21.2334 4.67037 21.2334Z" fill="#99E6FC"/>
<path d="M2.74725 39.3654C4.26484 39.3654 5.49451 40.595 5.49451 42.1126C5.49451 43.6302 4.26484 44.8599 2.74725 44.8599C1.22967 44.8599 0 43.6302 0 42.1126C0 40.595 1.22967 39.3654 2.74725 39.3654Z" fill="#FEE45A"/>
<path d="M3.02193 5.29935C3.47711 5.29935 3.84611 4.93036 3.84611 4.47518C3.84611 4.02 3.47711 3.651 3.02193 3.651C2.56675 3.651 2.19775 4.02 2.19775 4.47518C2.19775 4.93036 2.56675 5.29935 3.02193 5.29935Z" fill="#99E6FC"/>
<path d="M1.92305 32.7719C2.37823 32.7719 2.74723 32.4029 2.74723 31.9477C2.74723 31.4925 2.37823 31.1235 1.92305 31.1235C1.46787 31.1235 1.09888 31.4925 1.09888 31.9477C1.09888 32.4029 1.46787 32.7719 1.92305 32.7719Z" fill="#99E6FC"/>
<path d="M32.967 28.3764C32.967 28.6799 33.2131 28.9258 33.5165 28.9258H36.2637C36.2637 28.5831 36.2637 28.2144 36.2637 27.8269H33.5165C33.2131 27.8269 32.967 28.0728 32.967 28.3764Z" fill="#938992"/>
<path d="M31.8682 25.629C31.8682 25.9326 32.1142 26.1785 32.4176 26.1785H36.2638C36.2638 25.8177 36.2638 25.4502 36.2638 25.0796H32.4176C32.1142 25.0796 31.8682 25.3256 31.8682 25.629Z" fill="#938992"/>
<path d="M32.967 22.8818C32.967 23.1853 33.2131 23.4313 33.5165 23.4313H36.2637C36.2637 23.0603 36.2637 22.6927 36.2637 22.3324H33.5165C33.2131 22.3324 32.967 22.5784 32.967 22.8818Z" fill="#938992"/>
<path d="M31.8682 20.1345C31.8682 20.4379 32.1142 20.684 32.4176 20.684H36.2638C36.2638 20.2953 36.2638 19.9267 36.2638 19.5851H32.4176C32.1142 19.5851 31.8682 19.8311 31.8682 20.1345Z" fill="#938992"/>
<path d="M12.088 28.3764C12.088 28.0728 11.8419 27.8269 11.5385 27.8269H8.79126C8.79126 28.1866 8.79126 28.5524 8.79126 28.9258H11.5385C11.8419 28.9258 12.088 28.6799 12.088 28.3764Z" fill="#938992"/>
<path d="M13.1869 25.629C13.1869 25.3256 12.9408 25.0796 12.6374 25.0796H8.79126C8.79126 25.4434 8.79126 25.8093 8.79126 26.1785H12.6374C12.9408 26.1785 13.1869 25.9326 13.1869 25.629Z" fill="#938992"/>
<path d="M12.088 22.8818C12.088 22.5784 11.8419 22.3324 11.5385 22.3324H8.79126C8.79126 22.7016 8.79126 23.0675 8.79126 23.4313H11.5385C11.8419 23.4313 12.088 23.1853 12.088 22.8818Z" fill="#938992"/>
<path d="M13.1869 20.1345C13.1869 19.8311 12.9408 19.5851 12.6374 19.5851H8.79126C8.79126 19.9585 8.79126 20.3243 8.79126 20.684H12.6374C12.9408 20.684 13.1869 20.4379 13.1869 20.1345Z" fill="#938992"/>
<path d="M23.6264 4.20046H21.4286C21.1252 4.20046 20.8792 3.95442 20.8792 3.65101C20.8792 3.34761 21.1252 3.10156 21.4286 3.10156H23.6264C23.9298 3.10156 24.1759 3.34761 24.1759 3.65101C24.1759 3.95442 23.9298 4.20046 23.6264 4.20046Z" fill="white"/>
</svg>
