<svg width="50" height="51" viewBox="0 0 50 51" fill="none" xmlns="http://www.w3.org/2000/svg">
<g clip-path="url(#clip0)">
<path d="M43.4704 19.5812V41.1437C43.4583 41.146 43.4472 41.1517 43.4383 41.1601C42.6341 41.76 41.6549 42.0787 40.6516 42.0671C38.0415 42.0671 38.0415 40.4617 35.4321 40.4617C32.8227 40.4617 32.8219 42.0671 30.2118 42.0671C27.6016 42.0671 27.6016 40.4617 24.9922 40.4617C22.3829 40.4617 22.3821 42.0671 19.7719 42.0671C17.1618 42.0671 17.1618 40.4617 14.5524 40.4617C13.7006 40.4348 12.8614 40.6731 12.1508 41.1437C11.2384 41.7669 10.1531 42.0875 9.04849 42.0601C8.15563 41.981 7.29881 41.6706 6.56255 41.1593C6.55368 41.1509 6.54256 41.1452 6.53052 41.1429V19.5804C6.53135 14.6822 8.47748 9.98478 11.941 6.52113C15.4045 3.05747 20.1018 1.11114 25 1.11011C25.2344 1.11011 25.4688 1.1187 25.6985 1.12651C26.0438 1.14214 26.4016 1.16636 26.743 1.20464C27.0844 1.24292 27.4219 1.27886 27.7704 1.33511C30.6648 1.7634 33.4137 2.88156 35.7852 4.59526C36.0024 4.7562 36.211 4.91714 36.4196 5.0773C36.6282 5.23745 36.8454 5.41479 37.0446 5.58355C37.3977 5.88823 37.7362 6.20073 38.0602 6.52105C39.7777 8.23436 41.1398 10.2701 42.0682 12.5114C42.9967 14.7526 43.4732 17.1552 43.4704 19.5812Z" fill="#CECCD9"/>
<path d="M27.7704 1.33511C23.6926 1.97367 19.946 3.95929 17.1283 6.9753C14.3105 9.99131 12.5838 13.864 12.2235 17.9757C12.175 18.5054 12.1508 19.0437 12.1508 19.582V41.1445C11.6943 41.4632 11.1944 41.7147 10.6665 41.8914C10.2343 42.0127 9.78716 42.0721 9.33833 42.0679C8.33853 42.0772 7.36334 41.758 6.56255 41.1593C6.55368 41.1509 6.54256 41.1452 6.53052 41.1429V19.5804C6.53135 14.6822 8.47748 9.98478 11.941 6.52113C15.4045 3.05747 20.1018 1.11114 25 1.11011C25.2344 1.11011 25.4688 1.1187 25.6985 1.12651C26.3923 1.15918 27.0839 1.22881 27.7704 1.33511Z" fill="#BBB5C7"/>
<path d="M48.2891 44.4795H45.8797V40.9295C45.8792 40.6478 45.8045 40.3713 45.6634 40.1275C45.5222 39.8837 45.3194 39.6814 45.0754 39.5407C44.8313 39.4 44.5546 39.3259 44.2729 39.3259C43.9912 39.3258 43.7144 39.3998 43.4704 39.5405C43.4584 39.5424 43.4472 39.5478 43.4383 39.5561C42.6344 40.1566 41.655 40.4756 40.6516 40.4639C38.0415 40.4639 38.0415 38.8577 35.4321 38.8577C32.8227 38.8577 32.8219 40.4639 30.2118 40.4639C27.6016 40.4639 27.6016 38.8577 24.9922 38.8577C22.3829 38.8577 22.3821 40.4639 19.7719 40.4639C17.1618 40.4639 17.1618 38.8577 14.5524 38.8577C11.943 38.8577 11.95 40.4639 9.33989 40.4639C8.3396 40.4741 7.3637 40.1551 6.56255 39.5561C6.55367 39.5478 6.54251 39.5424 6.53052 39.5405C6.28644 39.3998 6.00969 39.3258 5.72799 39.3259C5.4463 39.3259 5.16956 39.4 4.92552 39.5407C4.68148 39.6814 4.4787 39.8837 4.33753 40.1275C4.19635 40.3713 4.12173 40.6478 4.12114 40.9295V44.4795H1.71099C1.2855 44.4808 0.877777 44.6503 0.576837 44.9511C0.275896 45.2519 0.106179 45.6595 0.104736 46.085V50.9038H49.8954V46.085C49.8939 45.6595 49.7242 45.2519 49.4233 44.9511C49.1223 44.6503 48.7146 44.4808 48.2891 44.4795Z" fill="#EDB798"/>
<path d="M12.2868 46.8882V39.4585C11.4415 40.1081 10.4059 40.4614 9.33989 40.464C8.3396 40.4742 7.3637 40.1552 6.56255 39.5562C6.55367 39.5479 6.54251 39.5425 6.53052 39.5406C6.28644 39.3999 6.00969 39.3259 5.72799 39.3259C5.4463 39.326 5.16956 39.4 4.92552 39.5407C4.68148 39.6814 4.4787 39.8838 4.33753 40.1276C4.19635 40.3713 4.12173 40.6479 4.12114 40.9296V44.4796H1.71099C1.2855 44.4809 0.877777 44.6504 0.576837 44.9512C0.275896 45.252 0.106179 45.6596 0.104736 46.0851V50.9038H49.8954V48.4945H13.893C13.6821 48.4946 13.4731 48.4531 13.2782 48.3724C13.0833 48.2917 12.9062 48.1734 12.757 48.0242C12.6078 47.8751 12.4895 47.6979 12.4088 47.503C12.3281 47.3081 12.2867 47.0992 12.2868 46.8882Z" fill="#DEA17E"/>
<path d="M45.8797 40.9295V44.4795H4.12036V40.9295C4.12095 40.6478 4.19557 40.3713 4.33674 40.1275C4.47792 39.8837 4.68069 39.6814 4.92474 39.5407C5.16878 39.4 5.44552 39.3259 5.72721 39.3259C6.00891 39.3258 6.28566 39.3998 6.52974 39.5405C6.54173 39.5424 6.55289 39.5478 6.56177 39.5561C7.36313 40.1553 8.33933 40.4743 9.33989 40.4639C11.95 40.4639 11.95 38.8577 14.5524 38.8577C17.1547 38.8577 17.1618 40.4639 19.7719 40.4639C22.3821 40.4639 22.3821 38.8577 24.9922 38.8577C27.6024 38.8577 27.6016 40.4639 30.2118 40.4639C32.8219 40.4639 32.8219 38.8577 35.4321 38.8577C38.0422 38.8577 38.0415 40.4639 40.6516 40.4639C41.6548 40.4754 42.6338 40.1564 43.4375 39.5561C43.4464 39.5478 43.4576 39.5424 43.4696 39.5405C43.7137 39.3996 43.9905 39.3255 44.2723 39.3254C44.5541 39.3253 44.831 39.3994 45.0752 39.5401C45.3193 39.6808 45.5222 39.8833 45.6634 40.1271C45.8046 40.371 45.8792 40.6477 45.8797 40.9295Z" fill="#8BDF9E"/>
<path d="M12.1508 41.1593V39.5382C11.3406 40.1477 10.3521 40.4731 9.33828 40.464C8.33852 40.4739 7.36322 40.1549 6.5625 39.5562C6.55362 39.5479 6.54246 39.5425 6.53047 39.5406C6.2864 39.3999 6.00964 39.3259 5.72795 39.3259C5.44625 39.326 5.16951 39.4 4.92547 39.5407C4.68143 39.6814 4.47865 39.8838 4.33748 40.1276C4.1963 40.3713 4.12168 40.6479 4.12109 40.9296V44.4796H45.8797V42.7656H13.757C13.3311 42.7653 12.9227 42.5961 12.6215 42.2949C12.3203 41.9937 12.151 41.5852 12.1508 41.1593Z" fill="#77BF87"/>
<path d="M25 3.52258C22.0996 3.52376 19.2535 4.31015 16.7639 5.79829C14.2742 7.28642 12.2339 9.4208 10.8594 11.9749C10.7596 12.1622 10.7379 12.3814 10.7992 12.5846C10.8605 12.7878 10.9997 12.9585 11.1865 13.0594C11.3732 13.1602 11.5923 13.1831 11.7959 13.1229C11.9994 13.0627 12.1708 12.9244 12.2727 12.7382C13.5097 10.4391 15.346 8.51772 17.5868 7.178C19.8276 5.83828 22.3893 5.13018 25 5.12883C25.213 5.12883 25.4173 5.04422 25.5679 4.8936C25.7186 4.74299 25.8032 4.53871 25.8032 4.32571C25.8032 4.11271 25.7186 3.90843 25.5679 3.75781C25.4173 3.6072 25.213 3.52258 25 3.52258Z" fill="#918291"/>
<path d="M12.7578 23.5991H13.3594C14.1053 23.5991 14.8207 23.3028 15.3481 22.7754C15.8756 22.2479 16.1719 21.5325 16.1719 20.7866C16.1719 20.0407 15.8756 19.3253 15.3481 18.7979C14.8207 18.2704 14.1053 17.9741 13.3594 17.9741H10.5469C10.4412 17.974 10.3365 17.9948 10.2388 18.0352C10.1411 18.0756 10.0524 18.1348 9.97765 18.2096C9.9029 18.2843 9.84363 18.3731 9.80323 18.4707C9.76283 18.5684 9.74209 18.6731 9.74219 18.7788V26.8101C9.74219 27.0235 9.82697 27.2282 9.97788 27.3791C10.1288 27.53 10.3335 27.6147 10.5469 27.6147C10.7603 27.6147 10.965 27.53 11.1159 27.3791C11.2668 27.2282 11.3516 27.0235 11.3516 26.8101V24.5132L12.1484 25.1772L14.8516 27.4272C15.0169 27.56 15.2272 27.6236 15.4384 27.6047C15.6496 27.5857 15.8453 27.4857 15.9844 27.3257C16.1181 27.1616 16.1816 26.9514 16.1611 26.7407C16.1406 26.53 16.0378 26.336 15.875 26.2007L12.7578 23.5991ZM11.3516 21.9897V19.5835H13.3594C13.6785 19.5835 13.9845 19.7103 14.2101 19.9359C14.4357 20.1615 14.5625 20.4675 14.5625 20.7866C14.5625 21.1057 14.4357 21.4117 14.2101 21.6374C13.9845 21.863 13.6785 21.9897 13.3594 21.9897H11.3516Z" fill="#918291"/>
<path d="M37.4453 17.9741H34.6406C34.5349 17.974 34.4302 17.9948 34.3326 18.0352C34.2349 18.0756 34.1461 18.1348 34.0714 18.2096C33.9967 18.2843 33.9374 18.3731 33.897 18.4707C33.8566 18.5684 33.8358 18.6731 33.8359 18.7788V26.8101C33.8359 27.0224 33.9203 27.2261 34.0705 27.3763C34.2207 27.5265 34.4243 27.6108 34.6367 27.6108C34.8491 27.6108 35.0528 27.5265 35.203 27.3763C35.3531 27.2261 35.4375 27.0224 35.4375 26.8101V23.5991H37.4453C37.8147 23.5991 38.1804 23.5264 38.5216 23.385C38.8628 23.2437 39.1729 23.0365 39.434 22.7754C39.6952 22.5142 39.9024 22.2041 40.0437 21.8629C40.1851 21.5217 40.2578 21.156 40.2578 20.7866C40.2578 20.4173 40.1851 20.0516 40.0437 19.7103C39.9024 19.3691 39.6952 19.059 39.434 18.7979C39.1729 18.5367 38.8628 18.3296 38.5216 18.1882C38.1804 18.0469 37.8147 17.9741 37.4453 17.9741ZM37.4453 21.9897H35.4375V19.5835H37.4453C37.7644 19.5835 38.0704 19.7103 38.296 19.9359C38.5217 20.1615 38.6484 20.4675 38.6484 20.7866C38.6484 21.1057 38.5217 21.4117 38.296 21.6374C38.0704 21.863 37.7644 21.9897 37.4453 21.9897Z" fill="#918291"/>
<path d="M20.1813 26.8116C20.6249 26.8116 20.9844 26.452 20.9844 26.0084C20.9844 25.5649 20.6249 25.2053 20.1813 25.2053C19.7377 25.2053 19.3782 25.5649 19.3782 26.0084C19.3782 26.452 19.7377 26.8116 20.1813 26.8116Z" fill="#918291"/>
<path d="M29.8188 26.8116C30.2623 26.8116 30.6219 26.452 30.6219 26.0084C30.6219 25.5649 30.2623 25.2053 29.8188 25.2053C29.3752 25.2053 29.0156 25.5649 29.0156 26.0084C29.0156 26.452 29.3752 26.8116 29.8188 26.8116Z" fill="#918291"/>
<path d="M25 17.978C24.787 17.978 24.5827 18.0626 24.4321 18.2133C24.2815 18.3639 24.1969 18.5682 24.1969 18.7812V26.8116C24.1969 26.9171 24.2177 27.0215 24.258 27.119C24.2984 27.2164 24.3576 27.3049 24.4321 27.3795C24.5067 27.4541 24.5952 27.5133 24.6927 27.5536C24.7901 27.594 24.8946 27.6147 25 27.6147C25.1055 27.6147 25.2099 27.594 25.3074 27.5536C25.4048 27.5133 25.4933 27.4541 25.5679 27.3795C25.6425 27.3049 25.7017 27.2164 25.742 27.119C25.7824 27.0215 25.8032 26.9171 25.8032 26.8116V18.7812C25.8032 18.5682 25.7185 18.3639 25.5679 18.2133C25.4173 18.0626 25.213 17.978 25 17.978Z" fill="#918291"/>
<path d="M20.1812 34.0358C20.1816 34.1414 20.1612 34.2459 20.121 34.3435C20.0808 34.4411 20.0218 34.5297 19.9472 34.6044C19.8726 34.679 19.784 34.7382 19.6865 34.7784C19.5889 34.8187 19.4844 34.8393 19.3789 34.839H17.475L18.3906 35.9327C18.5253 36.0973 18.59 36.3082 18.5705 36.52C18.5511 36.7318 18.4491 36.9275 18.2867 37.0648C18.1432 37.1863 17.9607 37.2521 17.7726 37.2499C17.6545 37.2506 17.5377 37.2251 17.4307 37.1751C17.3237 37.1251 17.2291 37.0519 17.1539 36.9608L13.5484 32.6304L12.1508 33.3335L10.9062 33.9585C10.784 34.0131 10.6507 34.0386 10.5169 34.0331C10.3831 34.0275 10.2524 33.991 10.1351 33.9265C10.1273 33.9265 8.20779 32.7702 6.52966 31.7663V29.8882L10.5773 32.321L12.1508 31.5288L13.3953 30.9108C13.5589 30.836 13.742 30.8152 13.9183 30.8513C14.0945 30.8874 14.2547 30.9785 14.3758 31.1116C14.3758 31.1194 16.1422 33.2397 16.1422 33.2397C16.1664 33.2312 19.3789 33.2312 19.3789 33.2312C19.5918 33.232 19.7958 33.3171 19.9461 33.4679C20.0965 33.6187 20.181 33.8229 20.1812 34.0358Z" fill="#918291"/>
<path d="M36.725 10.9077C36.8135 10.9809 36.8862 11.0714 36.9386 11.1736C36.9909 11.2758 37.0219 11.3877 37.0297 11.5023C37.0376 11.6146 37.0226 11.7273 36.9853 11.8336C36.9481 11.9399 36.8896 12.0374 36.8133 12.1202L34.4039 14.5296C34.2538 14.6809 34.0497 14.7663 33.8366 14.7671C33.6235 14.7679 33.4188 14.684 33.2676 14.5339C33.1163 14.3838 33.0309 14.1797 33.0301 13.9666C33.0293 13.7535 33.1131 13.5488 33.2633 13.3976L35.0226 11.6382L32.5492 9.78352C32.3949 9.65385 32.2898 9.47514 32.2515 9.27727C32.2321 9.17035 32.2342 9.06063 32.2577 8.95453C32.2812 8.84842 32.3256 8.74806 32.3883 8.6593C32.4039 8.63508 34.4117 6.23743 35.7851 4.5968C36.0023 4.75774 36.2109 4.91868 36.4195 5.07883C36.6281 5.23899 36.8453 5.41633 37.0445 5.58508L34.1851 9.01399L36.725 10.9077Z" fill="#918291"/>
</g>
<defs>
<clipPath id="clip0">
<rect width="50" height="50" fill="white" transform="translate(0 0.903809)"/>
</clipPath>
</defs>
</svg>
