<svg width="50" height="51" viewBox="0 0 50 51" fill="none" xmlns="http://www.w3.org/2000/svg">
<path d="M24.9998 50.9027C38.8046 50.9027 49.9956 39.7101 49.9956 25.9033C49.9956 12.0964 38.8046 0.903809 24.9998 0.903809C11.1949 0.903809 0.00390625 12.0964 0.00390625 25.9033C0.00390625 39.7101 11.1949 50.9027 24.9998 50.9027Z" fill="#67BAEB"/>
<path d="M40.2716 43.4872C28.0289 49.8647 12.9332 45.1089 6.5566 32.8645C2.29254 24.6821 3.00581 15.2249 7.60118 7.9469C-0.13962 15.4432 -2.40028 27.4069 2.83431 37.4488C9.21092 49.6932 24.3028 54.4491 36.5454 48.0715C40.4617 46.0407 43.767 43.004 46.122 39.2732C44.3853 40.9528 42.4148 42.3722 40.2716 43.4872Z" fill="#46A1F8"/>
<path d="M29.9583 1.40271L24.7159 4.13148C23.5306 4.75011 22.6393 5.81413 22.2381 7.08969C21.8368 8.36525 21.9584 9.74797 22.5761 10.9339C22.6115 11.0005 22.6334 11.0733 22.6406 11.1483C22.6478 11.2234 22.6402 11.2991 22.6181 11.3711C22.596 11.4432 22.5599 11.5102 22.5119 11.5683C22.4639 11.6264 22.4049 11.6744 22.3383 11.7097L19.6957 13.0896C18.9933 13.4552 18.4648 14.0847 18.2266 14.8399C17.9883 15.5951 18.0597 16.414 18.425 17.1165C18.7912 17.8183 19.421 18.346 20.176 18.5836C20.931 18.8212 21.7494 18.7492 22.4513 18.3835L42.427 7.97515C38.9866 4.63419 34.6585 2.35278 29.9583 1.40271Z" fill="#29A700"/>
<path d="M22.5059 18.0947C21.9721 17.51 21.6924 16.7372 21.7282 15.9462C21.764 15.1552 22.1124 14.4109 22.6969 13.8768L24.8991 11.8692C24.9545 11.8181 24.9992 11.7565 25.0307 11.688C25.0623 11.6196 25.08 11.5456 25.0829 11.4703C25.0858 11.3949 25.0738 11.3198 25.0476 11.2491C25.0214 11.1784 24.9815 11.1136 24.9303 11.0584H24.9264C24.0255 10.07 23.5536 8.76448 23.6142 7.42844C23.6749 6.09239 24.2632 4.83502 25.2499 3.93237L25.4487 3.75305L24.7159 4.13508C23.5306 4.7537 22.6393 5.81773 22.2381 7.09329C21.8368 8.36885 21.9584 9.75157 22.5761 10.9375C22.6115 11.004 22.6334 11.0769 22.6406 11.1519C22.6478 11.227 22.6402 11.3027 22.6181 11.3747C22.596 11.4468 22.5599 11.5138 22.5119 11.5719C22.4639 11.63 22.4049 11.678 22.3383 11.7133L19.6957 13.0893C18.9933 13.4549 18.4648 14.0844 18.2266 14.8396C17.9883 15.5948 18.0597 16.4137 18.425 17.1162C18.7912 17.818 19.421 18.3457 20.176 18.5833C20.931 18.8209 21.7494 18.7489 22.4513 18.3832L22.6774 18.2662C22.6189 18.2116 22.5605 18.1532 22.5059 18.0947Z" fill="#4B7D27"/>
<path d="M35.5327 32.1129L34.2605 32.7753C33.0843 33.3876 32.627 34.8373 33.239 36.0131C33.851 37.1889 35.3006 37.6457 36.4768 37.0334L37.749 36.371C38.9252 35.7586 39.3825 34.309 38.7705 33.1332C38.1585 31.9573 36.7089 31.5005 35.5327 32.1129Z" fill="#29A700"/>
<path d="M29.3975 2.30699L26.0612 4.04375C25.2688 4.45625 24.9605 5.4324 25.3726 6.22404C25.7847 7.01568 26.7612 7.32303 27.5536 6.91054L30.8899 5.17378C31.6823 4.76128 31.9906 3.78513 31.5785 2.99349C31.1664 2.20185 30.1899 1.89449 29.3975 2.30699Z" fill="#80D964"/>
<path d="M35.5895 32.5756L33.9681 33.4198C33.4239 33.7031 33.2122 34.3734 33.4951 34.9171C33.7781 35.4607 34.4486 35.6717 34.9927 35.3884L36.6142 34.5442C37.1583 34.2609 37.3701 33.5905 37.0871 33.0469C36.8042 32.5033 36.1337 32.2923 35.5895 32.5756Z" fill="#80D964"/>
<path d="M13.6815 34.5378C13.4924 34.1741 13.2334 33.8513 12.9194 33.5878C12.6054 33.3243 12.2425 33.1253 11.8515 33.0022C11.4606 32.8791 11.0492 32.8343 10.6409 32.8703C10.2325 32.9064 9.83536 33.0226 9.47202 33.2124L9.24595 33.3293C7.50759 29.9963 3.72293 28.4253 0.238403 29.3492C0.903612 34.0539 2.88589 38.4745 5.95631 42.1004L6.26812 41.9172L12.3524 38.744C12.7162 38.5555 13.0393 38.2971 13.3031 37.9836C13.5669 37.67 13.7663 37.3075 13.8898 36.9168C14.0132 36.526 14.0584 36.1147 14.0227 35.7065C13.9869 35.2983 13.871 34.9011 13.6815 34.5378Z" fill="#29A700"/>
<path d="M6.55655 32.8655C6.01417 31.825 5.5453 30.7477 5.15338 29.6417C3.5885 29.021 1.86582 28.9185 0.238403 29.3493C0.903612 34.0541 2.88589 38.4746 5.95631 42.1005L6.26812 41.9173L11.3312 39.2782C9.40445 37.412 7.79208 35.2465 6.55655 32.8655Z" fill="#4B7D27"/>
<path d="M49.1894 19.5881L47.186 20.629C45.8798 21.3107 44.8976 22.4833 44.4555 23.8889C44.0133 25.2946 44.1473 26.8184 44.8279 28.1253L44.6681 28.2072C44.4119 28.3405 44.1845 28.523 43.9989 28.7443C43.8132 28.9655 43.673 29.2212 43.5861 29.4967C43.4992 29.7721 43.4675 30.062 43.4926 30.3498C43.5178 30.6375 43.5993 30.9175 43.7327 31.1737C43.866 31.4299 44.0485 31.6574 44.2697 31.8431C44.4909 32.0287 44.7466 32.169 45.022 32.2559C45.2974 32.3428 45.5873 32.3745 45.875 32.3494C46.1627 32.3242 46.4426 32.2427 46.6988 32.1093L49.5441 30.628C50.2518 26.9677 50.1306 23.1954 49.1894 19.5881Z" fill="#29A700"/>
<path d="M47.5143 21.6758L45.8929 22.52C45.3487 22.8033 45.137 23.4737 45.4199 24.0173C45.7029 24.5609 46.3734 24.7719 46.9176 24.4886L48.539 23.6444C49.0831 23.3611 49.2949 22.6908 49.0119 22.1471C48.729 21.6035 48.0585 21.3925 47.5143 21.6758Z" fill="#80D964"/>
<path d="M16.3359 10.5701C18.4368 10.5701 20.14 8.8669 20.14 6.76593C20.14 4.66496 18.4368 2.96179 16.3359 2.96179C14.2349 2.96179 12.5317 4.66496 12.5317 6.76593C12.5317 8.8669 14.2349 10.5701 16.3359 10.5701Z" fill="#83D0FB"/>
<path d="M42.5401 20.816C44.9252 20.816 46.8587 18.8822 46.8587 16.4967C46.8587 14.1113 44.9252 12.1775 42.5401 12.1775C40.155 12.1775 38.2214 14.1113 38.2214 16.4967C38.2214 18.8822 40.155 20.816 42.5401 20.816Z" fill="#83D0FB"/>
</svg>
